<svg width="1100" height="514" viewBox="0 0 1100 514" fill="none" xmlns="http://www.w3.org/2000/svg">
<path d="M301.131 222.242L326.832 284.541L311.67 290.833L296.257 253.471L297.749 296.61L285.513 301.688L256.054 270.052L271.503 307.502L256.341 313.795L230.641 251.496L248.552 244.063L283.812 279.944L283.309 229.638L301.131 222.242Z" fill="white"/>
<path d="M301.131 222.242L302.979 221.475L302.216 219.626L300.369 220.393L301.131 222.242ZM326.832 284.541L327.595 286.39L329.442 285.623L328.679 283.774L326.832 284.541ZM311.67 290.833L309.822 291.6L310.585 293.449L312.432 292.682L311.67 290.833ZM296.257 253.471L298.104 252.705L294.259 253.544L296.257 253.471ZM297.749 296.61L298.512 298.459L299.794 297.927L299.746 296.538L297.749 296.61ZM285.513 301.688L284.05 303.055L284.995 304.069L286.275 303.537L285.513 301.688ZM256.054 270.052L257.516 268.686L254.207 270.819L256.054 270.052ZM271.503 307.502L272.266 309.351L274.113 308.585L273.351 306.736L271.503 307.502ZM256.341 313.795L254.494 314.561L255.257 316.41L257.104 315.644L256.341 313.795ZM230.641 251.496L229.878 249.647L228.031 250.414L228.794 252.262L230.641 251.496ZM248.552 244.063L249.977 242.658L249.033 241.697L247.789 242.214L248.552 244.063ZM283.812 279.944L282.386 281.349L285.86 284.883L285.81 279.921L283.812 279.944ZM283.309 229.638L282.547 227.789L281.297 228.308L281.311 229.661L283.309 229.638ZM299.284 223.008L324.985 285.307L328.679 283.774L302.979 221.475L299.284 223.008ZM326.069 282.692L310.907 288.984L312.432 292.682L327.595 286.39L326.069 282.692ZM313.517 290.066L298.104 252.705L294.41 254.238L309.822 291.6L313.517 290.066ZM294.259 253.544L295.752 296.683L299.746 296.538L298.254 253.399L294.259 253.544ZM296.986 294.761L284.75 299.84L286.275 303.537L298.512 298.459L296.986 294.761ZM286.975 300.322L257.516 268.686L254.591 271.418L284.05 303.055L286.975 300.322ZM254.207 270.819L269.656 308.269L273.351 306.736L257.901 269.285L254.207 270.819ZM270.741 305.654L255.578 311.946L257.104 315.644L272.266 309.351L270.741 305.654ZM258.188 313.028L232.488 250.729L228.794 252.262L254.494 314.561L258.188 313.028ZM231.403 253.345L249.314 245.912L247.789 242.214L229.878 249.647L231.403 253.345ZM247.126 245.468L282.386 281.349L285.237 278.539L249.977 242.658L247.126 245.468ZM285.81 279.921L285.308 229.615L281.311 229.661L281.813 279.967L285.81 279.921ZM284.072 231.487L301.894 224.09L300.369 220.393L282.547 227.789L284.072 231.487Z" fill="black"/>
<path d="M967.062 305.506L931.445 362.717L917.532 354.004L938.892 319.693L904.759 346.004L893.531 338.972L902.086 296.529L880.676 330.921L866.763 322.208L902.38 264.997L918.815 275.289L910.185 324.935L950.708 295.264L967.062 305.506Z" fill="white"/>
<path d="M967.062 305.506L968.757 306.567L969.814 304.869L968.119 303.808L967.062 305.506ZM931.445 362.717L930.388 364.415L932.083 365.476L933.14 363.778L931.445 362.717ZM917.532 354.004L915.837 352.942L914.78 354.64L916.475 355.702L917.532 354.004ZM938.892 319.693L940.587 320.755L937.673 318.105L938.892 319.693ZM904.759 346.004L903.702 347.702L904.879 348.439L905.977 347.592L904.759 346.004ZM893.531 338.972L891.573 338.573L891.298 339.934L892.474 340.67L893.531 338.972ZM902.086 296.529L904.044 296.928L900.391 295.468L902.086 296.529ZM880.676 330.921L879.619 332.619L881.314 333.681L882.371 331.983L880.676 330.921ZM866.763 322.208L865.068 321.146L864.011 322.844L865.706 323.906L866.763 322.208ZM902.38 264.997L903.437 263.299L901.742 262.237L900.685 263.935L902.38 264.997ZM918.815 275.289L920.783 275.635L921.014 274.307L919.872 273.592L918.815 275.289ZM910.185 324.935L908.217 324.589L907.367 329.48L911.365 326.553L910.185 324.935ZM950.708 295.264L951.765 293.566L950.619 292.848L949.529 293.646L950.708 295.264ZM965.367 304.444L929.75 361.655L933.14 363.778L968.757 306.567L965.367 304.444ZM932.502 361.019L918.589 352.306L916.475 355.702L930.388 364.415L932.502 361.019ZM919.227 355.065L940.587 320.755L937.197 318.632L915.837 352.942L919.227 355.065ZM937.673 318.105L903.54 344.416L905.977 347.592L940.111 321.281L937.673 318.105ZM905.816 344.306L894.588 337.274L892.474 340.67L903.702 347.702L905.816 344.306ZM895.489 339.371L904.044 296.928L900.128 296.13L891.573 338.573L895.489 339.371ZM900.391 295.468L878.981 329.86L882.371 331.983L903.781 297.591L900.391 295.468ZM881.733 329.223L867.82 320.51L865.706 323.906L879.619 332.619L881.733 329.223ZM868.458 323.269L904.075 266.058L900.685 263.935L865.068 321.146L868.458 323.269ZM901.323 266.694L917.758 276.987L919.872 273.592L903.437 263.299L901.323 266.694ZM916.847 274.943L908.217 324.589L912.153 325.281L920.783 275.635L916.847 274.943ZM911.365 326.553L951.888 296.881L949.529 293.646L909.006 323.318L911.365 326.553ZM949.651 296.962L966.005 307.203L968.119 303.808L951.765 293.566L949.651 296.962Z" fill="black"/>
<path d="M299.276 114.174L287.406 174.378L269.065 171.534L275.876 110.545L299.276 114.174ZM273.56 205.39C269.765 204.802 266.814 203.222 264.707 200.65C262.696 198.007 261.945 195.04 262.452 191.751C262.972 188.378 264.588 185.735 267.3 183.824C270.097 181.927 273.392 181.272 277.187 181.86C280.897 182.436 283.757 184.045 285.767 186.688C287.862 189.345 288.649 192.359 288.129 195.733C287.622 199.022 285.97 201.616 283.174 203.513C280.475 205.34 277.27 205.966 273.56 205.39Z" fill="white"/>
<path d="M299.276 114.174L301.238 114.563L301.642 112.517L299.581 112.197L299.276 114.174ZM287.406 174.378L287.101 176.355L288.997 176.649L289.368 174.767L287.406 174.378ZM269.065 171.534L267.078 171.31L266.865 173.217L268.76 173.51L269.065 171.534ZM275.876 110.545L276.181 108.569L274.12 108.249L273.889 110.321L275.876 110.545ZM264.707 200.65L263.115 201.86L263.137 201.889L263.16 201.917L264.707 200.65ZM267.3 183.824L266.176 182.169L266.162 182.179L266.148 182.189L267.3 183.824ZM285.767 186.688L284.176 187.898L284.187 187.912L284.198 187.926L285.767 186.688ZM283.174 203.513L284.295 205.171L284.298 205.169L283.174 203.513ZM297.314 113.785L285.444 173.989L289.368 174.767L301.238 114.563L297.314 113.785ZM287.711 172.401L269.37 169.557L268.76 173.51L287.101 176.355L287.711 172.401ZM271.052 171.758L277.863 110.769L273.889 110.321L267.078 171.31L271.052 171.758ZM275.571 112.522L298.972 116.151L299.581 112.197L276.181 108.569L275.571 112.522ZM273.864 203.414C270.476 202.888 268 201.515 266.253 199.383L263.16 201.917C265.628 204.929 269.054 206.716 273.255 207.367L273.864 203.414ZM266.298 199.44C264.617 197.23 264.004 194.812 264.428 192.058L260.475 191.445C259.886 195.269 260.775 198.783 263.115 201.86L266.298 199.44ZM264.428 192.058C264.868 189.204 266.198 187.049 268.453 185.46L266.148 182.189C262.978 184.422 261.076 187.552 260.475 191.445L264.428 192.058ZM268.424 185.48C270.745 183.905 273.514 183.315 276.882 183.837L277.491 179.884C273.27 179.229 269.448 179.948 266.176 182.169L268.424 185.48ZM276.882 183.837C280.153 184.344 282.522 185.723 284.176 187.898L287.359 185.478C284.993 182.367 281.641 180.527 277.491 179.884L276.882 183.837ZM284.198 187.926C285.944 190.142 286.589 192.596 286.153 195.426L290.105 196.039C290.709 192.123 289.779 188.548 287.337 185.45L284.198 187.926ZM286.153 195.426C285.732 198.157 284.396 200.266 282.05 201.858L284.298 205.169C287.545 202.965 289.512 199.887 290.105 196.039L286.153 195.426ZM282.052 201.856C279.834 203.357 277.157 203.924 273.864 203.414L273.255 207.367C277.383 208.007 281.115 207.323 284.295 205.171L282.052 201.856Z" fill="black"/>
<path d="M87.7888 78.7121L112.129 135.051L95.4314 143.155L66.4856 89.0521L87.7888 78.7121ZM118.307 168.476C114.852 170.152 111.53 170.532 108.34 169.614C105.189 168.582 102.89 166.568 101.444 163.57C99.961 160.496 99.7935 157.4 100.942 154.282C102.167 151.126 104.507 148.71 107.961 147.033C111.339 145.393 114.603 145.09 117.754 146.121C120.982 147.116 123.337 149.15 124.82 152.224C126.266 155.222 126.377 158.298 125.152 161.454C123.966 164.496 121.685 166.836 118.307 168.476Z" fill="white"/>
<path d="M87.7888 78.7121L89.6228 77.9147L88.7957 76.0003L86.9197 76.9108L87.7888 78.7121ZM112.129 135.051L112.998 136.852L114.723 136.014L113.962 134.253L112.129 135.051ZM95.4314 143.155L93.67 144.103L94.5748 145.794L96.3005 144.956L95.4314 143.155ZM66.4856 89.0521L65.6165 87.2508L63.7405 88.1613L64.7242 89.9998L66.4856 89.0521ZM108.34 169.614L107.716 171.517L107.751 171.528L107.786 171.538L108.34 169.614ZM100.942 154.282L99.0797 153.558L99.0734 153.575L99.0673 153.591L100.942 154.282ZM117.754 146.121L117.131 148.024L117.147 148.03L117.164 148.035L117.754 146.121ZM125.152 161.454L127.013 162.18L127.014 162.177L125.152 161.454ZM85.9549 79.5095L110.295 135.848L113.962 134.253L89.6228 77.9147L85.9549 79.5095ZM111.259 133.249L94.5623 141.354L96.3005 144.956L112.998 136.852L111.259 133.249ZM97.1928 142.207L68.247 88.1044L64.7242 89.9998L93.67 144.103L97.1928 142.207ZM67.3547 90.8534L88.6579 80.5134L86.9197 76.9108L65.6165 87.2508L67.3547 90.8534ZM117.438 166.674C114.353 168.171 111.538 168.451 108.894 167.69L107.786 171.538C111.522 172.613 115.352 172.133 119.176 170.277L117.438 166.674ZM108.963 167.711C106.329 166.849 104.454 165.207 103.243 162.697L99.645 164.444C101.326 167.929 104.049 170.316 107.716 171.517L108.963 167.711ZM103.243 162.697C101.989 160.096 101.862 157.564 102.816 154.972L99.0673 153.591C97.7252 157.236 97.9333 160.896 99.645 164.444L103.243 162.697ZM102.804 155.005C103.821 152.386 105.764 150.322 108.83 148.834L107.092 145.232C103.249 147.097 100.513 149.866 99.0797 153.558L102.804 155.005ZM108.83 148.834C111.809 147.389 114.537 147.175 117.131 148.024L118.377 144.218C114.669 143.004 110.87 143.398 107.092 145.232L108.83 148.834ZM117.164 148.035C119.856 148.864 121.776 150.518 123.021 153.098L126.619 151.351C124.898 147.782 122.107 145.367 118.344 144.208L117.164 148.035ZM123.021 153.098C124.222 155.586 124.317 158.084 123.29 160.731L127.014 162.177C128.437 158.513 128.311 154.858 126.619 151.351L123.021 153.098ZM123.291 160.728C122.317 163.228 120.435 165.219 117.438 166.674L119.176 170.277C122.934 168.453 125.616 165.764 127.013 162.18L123.291 160.728Z" fill="black"/>
<path d="M53.8826 183.4L78.2223 239.738L61.5252 247.843L32.5793 193.74L53.8826 183.4ZM84.4007 273.163C80.9462 274.84 77.6237 275.22 74.4333 274.302C71.2826 273.27 68.9842 271.256 67.538 268.258C66.0547 265.184 65.8873 262.088 67.0356 258.969C68.2607 255.814 70.6005 253.397 74.0551 251.721C77.4329 250.081 80.6972 249.777 83.8479 250.809C87.0754 251.804 89.4307 253.838 90.914 256.912C92.3601 259.91 92.4707 262.986 91.2456 266.142C90.0602 269.183 87.7785 271.524 84.4007 273.163Z" fill="white"/>
<path d="M53.8826 183.4L55.7165 182.602L54.8894 180.688L53.0135 181.599L53.8826 183.4ZM78.2223 239.738L79.0914 241.54L80.8171 240.702L80.0562 238.941L78.2223 239.738ZM61.5252 247.843L59.7637 248.79L60.6685 250.482L62.3942 249.644L61.5252 247.843ZM32.5793 193.74L31.7103 191.939L29.8343 192.849L30.8179 194.688L32.5793 193.74ZM74.4333 274.302L73.81 276.205L73.8444 276.216L73.8793 276.226L74.4333 274.302ZM67.0356 258.969L65.1735 258.246L65.1671 258.262L65.1611 258.279L67.0356 258.969ZM83.8479 250.809L83.2246 252.712L83.2412 252.717L83.2579 252.723L83.8479 250.809ZM91.2456 266.142L93.1067 266.867L93.1077 266.865L91.2456 266.142ZM52.0486 184.197L76.3883 240.536L80.0562 238.941L55.7165 182.602L52.0486 184.197ZM77.3532 237.937L60.6561 246.041L62.3942 249.644L79.0914 241.54L77.3532 237.937ZM63.2866 246.895L34.3408 192.792L30.8179 194.688L59.7637 248.79L63.2866 246.895ZM33.4484 195.541L54.7516 185.201L53.0135 181.599L31.7103 191.939L33.4484 195.541ZM83.5317 271.362C80.447 272.859 77.6318 273.138 74.9873 272.378L73.8793 276.226C77.6155 277.301 81.4453 276.821 85.2698 274.965L83.5317 271.362ZM75.0566 272.399C72.4229 271.537 70.5481 269.895 69.3372 267.385L65.7387 269.132C67.4202 272.617 70.1423 275.004 73.81 276.205L75.0566 272.399ZM69.3372 267.385C68.0824 264.784 67.9556 262.252 68.9101 259.66L65.1611 258.279C63.819 261.923 64.027 265.584 65.7387 269.132L69.3372 267.385ZM68.8977 259.693C69.9145 257.074 71.8581 255.01 74.9242 253.522L73.186 249.919C69.343 251.785 66.6069 254.554 65.1735 258.246L68.8977 259.693ZM74.9242 253.522C77.9024 252.076 80.6311 251.863 83.2246 252.712L84.4712 248.906C80.7632 247.692 76.9635 248.086 73.186 249.919L74.9242 253.522ZM83.2579 252.723C85.9497 253.552 87.8701 255.206 89.1147 257.786L92.7132 256.039C90.9913 252.47 88.201 250.055 84.4379 248.896L83.2579 252.723ZM89.1147 257.786C90.3153 260.274 90.411 262.772 89.3834 265.418L93.1077 266.865C94.5303 263.201 94.405 259.545 92.7132 256.039L89.1147 257.786ZM89.3844 265.416C88.4103 267.915 86.5291 269.907 83.5317 271.362L85.2698 274.965C89.028 273.141 91.71 270.451 93.1067 266.867L89.3844 265.416Z" fill="black"/>
<path d="M176.686 256.578L190.164 316.449L172.25 321.303L153.83 262.772L176.686 256.578ZM190.039 350.432C186.333 351.437 182.997 351.191 180.031 349.696C177.126 348.097 175.24 345.69 174.374 342.477C173.487 339.181 173.896 336.108 175.603 333.258C177.392 330.386 180.14 328.448 183.846 327.444C187.47 326.462 190.735 326.771 193.64 328.37C196.628 329.948 198.566 332.384 199.454 335.68C200.319 338.893 199.858 341.936 198.069 344.808C196.339 347.575 193.663 349.45 190.039 350.432Z" fill="white"/>
<path d="M176.686 256.578L178.636 256.135L178.178 254.101L176.166 254.646L176.686 256.578ZM190.164 316.449L190.684 318.38L192.535 317.878L192.114 316.006L190.164 316.449ZM172.25 321.303L170.343 321.907L170.918 323.736L172.77 323.235L172.25 321.303ZM153.83 262.772L153.31 260.84L151.298 261.386L151.923 263.375L153.83 262.772ZM180.031 349.696L179.066 351.45L179.097 351.467L179.13 351.484L180.031 349.696ZM175.603 333.258L173.907 332.202L173.897 332.216L173.888 332.231L175.603 333.258ZM193.64 328.37L192.675 330.123L192.69 330.132L192.706 330.14L193.64 328.37ZM198.069 344.808L199.763 345.867L199.765 345.865L198.069 344.808ZM174.736 257.02L188.213 316.891L192.114 316.006L178.636 256.135L174.736 257.02ZM189.643 314.517L171.729 319.372L172.77 323.235L190.684 318.38L189.643 314.517ZM174.157 320.7L155.737 262.168L151.923 263.375L170.343 321.907L174.157 320.7ZM154.351 264.703L177.206 258.509L176.166 254.646L153.31 260.84L154.351 264.703ZM189.519 348.501C186.209 349.398 183.391 349.149 180.932 347.909L179.13 351.484C182.603 353.234 186.456 353.475 190.559 352.363L189.519 348.501ZM180.997 347.943C178.568 346.606 177.03 344.644 176.305 341.954L172.444 343C173.451 346.736 175.683 349.588 179.066 351.45L180.997 347.943ZM176.305 341.954C175.554 339.165 175.899 336.654 177.317 334.285L173.888 332.231C171.894 335.562 171.419 339.196 172.444 343L176.305 341.954ZM177.299 334.315C178.784 331.932 181.077 330.266 184.366 329.375L183.326 325.513C179.203 326.63 176 328.841 173.907 332.202L177.299 334.315ZM184.366 329.375C187.562 328.509 190.283 328.807 192.675 330.123L194.606 326.617C191.186 324.734 187.379 324.414 183.326 325.513L184.366 329.375ZM192.706 330.14C195.198 331.456 196.778 333.438 197.523 336.203L201.384 335.157C200.353 331.331 198.059 328.44 194.575 326.6L192.706 330.14ZM197.523 336.203C198.242 338.871 197.873 341.342 196.372 343.751L199.765 345.865C201.842 342.53 202.397 338.916 201.384 335.157L197.523 336.203ZM196.374 343.749C194.953 346.023 192.735 347.63 189.519 348.501L190.559 352.363C194.591 351.271 197.726 349.128 199.763 345.867L196.374 343.749Z" fill="black"/>
<path d="M321.146 331.435L345.486 387.774L328.789 395.878L299.843 341.775L321.146 331.435ZM351.664 421.199C348.21 422.875 344.887 423.255 341.697 422.337C338.546 421.306 336.248 419.291 334.802 416.294C333.318 413.219 333.151 410.123 334.299 407.005C335.524 403.849 337.864 401.433 341.319 399.756C344.697 398.117 347.961 397.813 351.112 398.844C354.339 399.839 356.694 401.873 358.178 404.948C359.624 407.945 359.734 411.021 358.509 414.177C357.324 417.219 355.042 419.559 351.664 421.199Z" fill="white"/>
<path d="M321.146 331.435L322.98 330.638L322.153 328.723L320.277 329.634L321.146 331.435ZM345.486 387.774L346.355 389.575L348.081 388.737L347.32 386.976L345.486 387.774ZM328.789 395.878L327.027 396.826L327.932 398.517L329.658 397.679L328.789 395.878ZM299.843 341.775L298.974 339.974L297.098 340.884L298.082 342.723L299.843 341.775ZM341.697 422.337L341.074 424.24L341.108 424.251L341.143 424.262L341.697 422.337ZM334.299 407.005L332.437 406.281L332.431 406.298L332.425 406.314L334.299 407.005ZM351.112 398.844L350.488 400.747L350.505 400.753L350.522 400.758L351.112 398.844ZM358.509 414.177L360.37 414.903L360.371 414.9L358.509 414.177ZM319.312 332.233L343.652 388.571L347.32 386.976L322.98 330.638L319.312 332.233ZM344.617 385.972L327.92 394.077L329.658 397.679L346.355 389.575L344.617 385.972ZM330.55 394.93L301.604 340.828L298.082 342.723L327.027 396.826L330.55 394.93ZM300.712 343.577L322.015 333.237L320.277 329.634L298.974 339.974L300.712 343.577ZM350.795 419.397C347.711 420.895 344.895 421.174 342.251 420.413L341.143 424.262C344.879 425.336 348.709 424.856 352.534 423L350.795 419.397ZM342.32 420.435C339.687 419.572 337.812 417.93 336.601 415.42L333.002 417.167C334.684 420.652 337.406 423.039 341.074 424.24L342.32 420.435ZM336.601 415.42C335.346 412.82 335.219 410.287 336.174 407.695L332.425 406.314C331.083 409.959 331.291 413.619 333.002 417.167L336.601 415.42ZM336.161 407.728C337.178 405.109 339.122 403.046 342.188 401.557L340.45 397.955C336.607 399.82 333.871 402.589 332.437 406.281L336.161 407.728ZM342.188 401.557C345.166 400.112 347.895 399.898 350.488 400.747L351.735 396.942C348.027 395.727 344.227 396.121 340.45 397.955L342.188 401.557ZM350.522 400.758C353.213 401.587 355.134 403.241 356.378 405.821L359.977 404.074C358.255 400.505 355.465 398.091 351.702 396.931L350.522 400.758ZM356.378 405.821C357.579 408.309 357.675 410.807 356.647 413.454L360.371 414.9C361.794 411.236 361.669 407.581 359.977 404.074L356.378 405.821ZM356.648 413.451C355.674 415.951 353.793 417.943 350.795 419.397L352.534 423C356.292 421.176 358.974 418.487 360.37 414.903L356.648 413.451Z" fill="black"/>
<path d="M413.664 292.624L404.68 353.327L386.224 351.366L390.116 290.123L413.664 292.624ZM392.329 384.967C388.511 384.561 385.487 383.125 383.26 380.657C381.126 378.113 380.233 375.187 380.583 371.877C380.941 368.483 382.429 365.766 385.047 363.727C387.75 361.697 391.011 360.885 394.829 361.291C398.563 361.687 401.497 363.157 403.631 365.701C405.85 368.254 406.78 371.227 406.421 374.622C406.072 377.931 404.546 380.601 401.843 382.631C399.234 384.585 396.063 385.364 392.329 384.967Z" fill="white"/>
<path d="M413.664 292.624L415.642 292.918L415.948 290.855L413.874 290.635L413.664 292.624ZM404.68 353.327L404.47 355.316L406.377 355.518L406.658 353.621L404.68 353.327ZM386.224 351.366L384.228 351.238L384.106 353.153L386.014 353.355L386.224 351.366ZM390.116 290.123L390.326 288.134L388.253 287.914L388.121 289.995L390.116 290.123ZM383.26 380.657L381.728 381.942L381.751 381.97L381.776 381.997L383.26 380.657ZM385.047 363.727L383.846 362.127L383.832 362.138L383.818 362.149L385.047 363.727ZM403.631 365.701L402.099 366.986L402.11 367L402.122 367.013L403.631 365.701ZM401.843 382.631L403.042 384.232L403.045 384.231L401.843 382.631ZM411.686 292.33L402.702 353.033L406.658 353.621L415.642 292.918L411.686 292.33ZM404.89 351.338L386.434 349.377L386.014 353.355L404.47 355.316L404.89 351.338ZM388.22 351.494L392.112 290.251L388.121 289.995L384.228 351.238L388.22 351.494ZM389.906 292.112L413.454 294.613L413.874 290.635L390.326 288.134L389.906 292.112ZM392.539 382.978C389.13 382.616 386.59 381.363 384.744 379.317L381.776 381.997C384.385 384.887 387.892 386.507 392.119 386.956L392.539 382.978ZM384.791 379.372C383.007 377.246 382.279 374.86 382.572 372.088L378.594 371.666C378.188 375.514 379.244 378.981 381.728 381.942L384.791 379.372ZM382.572 372.088C382.875 369.217 384.1 367 386.277 365.305L383.818 362.149C380.758 364.532 379.008 367.749 378.594 371.666L382.572 372.088ZM386.249 365.327C388.492 363.642 391.23 362.92 394.619 363.28L395.039 359.302C390.791 358.851 387.008 359.752 383.846 362.127L386.249 365.327ZM394.619 363.28C397.911 363.629 400.342 364.892 402.099 366.986L405.162 364.416C402.651 361.422 399.215 359.745 395.039 359.302L394.619 363.28ZM402.122 367.013C403.972 369.142 404.733 371.562 404.433 374.411L408.41 374.833C408.826 370.892 407.727 367.366 405.14 364.389L402.122 367.013ZM404.433 374.411C404.142 377.158 402.909 379.329 400.642 381.031L403.045 384.231C406.183 381.874 408.001 378.705 408.41 374.833L404.433 374.411ZM400.644 381.03C398.5 382.635 395.852 383.33 392.539 382.978L392.119 386.956C396.273 387.397 399.968 386.535 403.042 384.232L400.644 381.03Z" fill="black"/>
<path d="M981.376 384.284L946.803 434.975L931.073 425.124L961.307 371.716L981.376 384.284ZM921.891 458.037C918.637 455.999 916.547 453.382 915.622 450.185C914.815 446.96 915.291 443.936 917.05 441.111C918.854 438.213 921.377 436.42 924.62 435.732C927.934 435.09 931.219 435.788 934.474 437.826C937.656 439.819 939.65 442.427 940.458 445.652C941.337 448.921 940.875 452.005 939.071 454.902C937.312 457.728 934.776 459.461 931.461 460.104C928.263 460.719 925.073 460.03 921.891 458.037Z" fill="white"/>
<path d="M981.376 384.284L983.025 385.416L984.2 383.693L982.433 382.587L981.376 384.284ZM946.803 434.975L945.746 436.673L947.371 437.691L948.452 436.107L946.803 434.975ZM931.073 425.124L929.335 424.134L928.39 425.804L930.016 426.822L931.073 425.124ZM961.307 371.716L962.364 370.018L960.596 368.911L959.569 370.726L961.307 371.716ZM915.622 450.185L913.685 450.67L913.694 450.705L913.704 450.74L915.622 450.185ZM924.62 435.732L924.238 433.766L924.221 433.77L924.204 433.773L924.62 435.732ZM940.458 445.652L938.52 446.137L938.525 446.154L938.529 446.171L940.458 445.652ZM931.461 460.104L931.839 462.07L931.842 462.07L931.461 460.104ZM979.726 383.153L945.153 433.844L948.452 436.107L983.025 385.416L979.726 383.153ZM947.86 433.278L932.13 423.426L930.016 426.822L945.746 436.673L947.86 433.278ZM932.811 426.114L963.044 372.705L959.569 370.726L929.335 424.134L932.811 426.114ZM960.25 373.413L980.319 385.982L982.433 382.587L962.364 370.018L960.25 373.413ZM922.948 456.34C920.042 454.52 918.307 452.279 917.541 449.629L913.704 450.74C914.787 454.484 917.231 457.479 920.834 459.735L922.948 456.34ZM917.56 449.699C916.885 447.004 917.272 444.538 918.745 442.172L915.355 440.049C913.31 443.334 912.745 446.917 913.685 450.67L917.56 449.699ZM918.745 442.172C920.271 439.721 922.34 438.263 925.035 437.691L924.204 433.773C920.414 434.577 917.436 436.705 915.355 440.049L918.745 442.172ZM925.001 437.698C927.752 437.165 930.528 437.715 933.417 439.524L935.531 436.128C931.91 433.861 928.117 433.015 924.238 433.766L925.001 437.698ZM933.417 439.524C936.222 441.281 937.856 443.483 938.52 446.137L942.395 445.166C941.445 441.372 939.089 438.357 935.531 436.128L933.417 439.524ZM938.529 446.171C939.263 448.898 938.89 451.409 937.376 453.841L940.766 455.964C942.861 452.6 943.412 448.944 942.386 445.132L938.529 446.171ZM937.376 453.841C935.916 456.186 933.86 457.599 931.079 458.138L931.842 462.07C935.691 461.324 938.709 459.269 940.766 455.964L937.376 453.841ZM931.082 458.137C928.454 458.643 925.772 458.108 922.948 456.34L920.834 459.735C924.375 461.953 928.072 462.795 931.839 462.07L931.082 458.137Z" fill="black"/>
<path d="M1056.32 242.079L1011.55 284.041L998.342 271.002L1039.46 225.443L1056.32 242.079ZM982.222 301.134C979.49 298.436 978.02 295.427 977.813 292.104C977.726 288.781 978.848 285.932 981.179 283.557C983.57 281.121 986.422 279.92 989.737 279.954C993.111 280.048 996.165 281.444 998.898 284.141C1001.57 286.779 1002.95 289.76 1003.04 293.083C1003.18 296.466 1002.06 299.375 999.671 301.812C997.34 304.187 994.487 305.328 991.112 305.233C987.858 305.138 984.894 303.772 982.222 301.134Z" fill="white"/>
<path d="M1056.32 242.079L1057.68 243.542L1059.2 242.116L1057.72 240.651L1056.32 242.079ZM1011.55 284.041L1010.15 285.469L1011.51 286.816L1012.91 285.505L1011.55 284.041ZM998.342 271.002L996.861 269.658L995.576 271.082L996.941 272.429L998.342 271.002ZM1039.46 225.443L1040.86 224.015L1039.38 222.55L1037.98 224.098L1039.46 225.443ZM977.813 292.104L975.816 292.157L975.817 292.193L975.82 292.229L977.813 292.104ZM989.737 279.954L989.792 277.951L989.774 277.951L989.757 277.951L989.737 279.954ZM1003.04 293.083L1001.04 293.135L1001.04 293.153L1001.04 293.17L1003.04 293.083ZM991.112 305.233L991.054 307.236L991.057 307.236L991.112 305.233ZM1054.95 240.615L1010.19 282.578L1012.91 285.505L1057.68 243.542L1054.95 240.615ZM1012.95 282.614L999.743 269.575L996.941 272.429L1010.15 285.469L1012.95 282.614ZM999.822 272.346L1040.94 226.787L1037.98 224.098L996.861 269.658L999.822 272.346ZM1038.06 226.87L1054.91 243.506L1057.72 240.651L1040.86 224.015L1038.06 226.87ZM983.623 299.707C981.183 297.298 979.978 294.733 979.806 291.979L975.82 292.229C976.062 296.12 977.796 299.575 980.822 302.562L983.623 299.707ZM979.809 292.052C979.737 289.274 980.651 286.951 982.603 284.962L979.756 282.152C977.046 284.913 975.716 288.288 975.816 292.157L979.809 292.052ZM982.603 284.962C984.625 282.901 986.961 281.928 989.716 281.957L989.757 277.951C985.884 277.911 982.515 279.34 979.756 282.152L982.603 284.962ZM989.681 281.956C992.482 282.034 995.072 283.175 997.497 285.569L1000.3 282.714C997.259 279.713 993.741 278.062 989.792 277.951L989.681 281.956ZM997.497 285.569C999.853 287.895 1000.97 290.4 1001.04 293.135L1005.03 293.031C1004.93 289.12 1003.29 285.664 1000.3 282.714L997.497 285.569ZM1001.04 293.17C1001.16 295.992 1000.25 298.362 998.247 300.407L1001.09 303.217C1003.87 300.389 1005.2 296.94 1005.03 292.995L1001.04 293.17ZM998.247 300.407C996.312 302.378 993.998 303.31 991.167 303.231L991.057 307.236C994.975 307.345 998.367 305.995 1001.09 303.217L998.247 300.407ZM991.17 303.231C988.496 303.153 985.994 302.047 983.623 299.707L980.822 302.562C983.795 305.497 987.219 307.124 991.054 307.236L991.17 303.231Z" fill="black"/>
<path d="M831.637 282.542L818.684 342.522L800.398 339.346L808.306 278.49L831.637 282.542ZM804.281 373.279C800.498 372.622 797.576 370.989 795.515 368.379C793.553 365.7 792.855 362.721 793.421 359.441C794.002 356.077 795.665 353.465 798.411 351.603C801.242 349.756 804.548 349.161 808.332 349.819C812.031 350.461 814.862 352.122 816.824 354.801C818.87 357.495 819.603 360.524 819.022 363.887C818.456 367.167 816.758 369.73 813.928 371.577C811.196 373.354 807.981 373.922 804.281 373.279Z" fill="white"/>
<path d="M831.637 282.542L833.591 282.966L834.032 280.928L831.977 280.571L831.637 282.542ZM818.684 342.522L818.344 344.493L820.234 344.821L820.638 342.947L818.684 342.522ZM800.398 339.346L798.415 339.087L798.167 340.989L800.057 341.317L800.398 339.346ZM808.306 278.49L808.646 276.519L806.592 276.162L806.323 278.23L808.306 278.49ZM795.515 368.379L793.902 369.56L793.924 369.59L793.946 369.618L795.515 368.379ZM798.411 351.603L797.318 349.928L797.303 349.937L797.289 349.947L798.411 351.603ZM816.824 354.801L815.211 355.982L815.221 355.996L815.232 356.01L816.824 354.801ZM813.928 371.577L815.019 373.254L815.021 373.253L813.928 371.577ZM829.682 282.118L816.729 342.098L820.638 342.947L833.591 282.966L829.682 282.118ZM819.024 340.552L800.738 337.376L800.057 341.317L818.344 344.493L819.024 340.552ZM802.381 339.606L810.289 278.75L806.323 278.23L798.415 339.087L802.381 339.606ZM807.966 280.461L831.297 284.513L831.977 280.571L808.646 276.519L807.966 280.461ZM804.622 371.309C801.243 370.722 798.792 369.303 797.084 367.14L793.946 369.618C796.36 372.674 799.753 374.523 803.941 375.25L804.622 371.309ZM797.128 367.198C795.488 364.958 794.918 362.529 795.392 359.783L791.451 359.099C790.792 362.912 791.618 366.441 793.902 369.56L797.128 367.198ZM795.392 359.783C795.883 356.938 797.252 354.807 799.534 353.26L797.289 349.947C794.079 352.123 792.121 355.217 791.451 359.099L795.392 359.783ZM799.505 353.279C801.854 351.746 804.634 351.206 807.991 351.789L808.672 347.848C804.463 347.117 800.629 347.767 797.318 349.928L799.505 353.279ZM807.991 351.789C811.253 352.356 813.596 353.777 815.211 355.982L818.437 353.62C816.127 350.467 812.809 348.566 808.672 347.848L807.991 351.789ZM815.232 356.01C816.939 358.257 817.539 360.723 817.052 363.545L820.993 364.23C821.667 360.325 820.801 356.733 818.416 353.592L815.232 356.01ZM817.052 363.545C816.582 366.268 815.208 368.352 812.834 369.901L815.021 373.253C818.308 371.108 820.33 368.066 820.993 364.23L817.052 363.545ZM812.836 369.9C810.591 371.361 807.904 371.879 804.622 371.309L803.941 375.25C808.057 375.965 811.801 375.348 815.019 373.254L812.836 369.9Z" fill="black"/>
<path d="M846.822 59.8466L836.086 120.263L817.694 117.767L823.357 56.661L846.822 59.8466ZM822.825 151.532C819.02 151.015 816.039 149.491 813.884 146.959C811.824 144.355 811.017 141.403 811.462 138.105C811.919 134.722 813.485 132.05 816.161 130.088C818.921 128.138 822.204 127.421 826.009 127.938C829.729 128.443 832.619 129.998 834.679 132.602C836.823 135.219 837.667 138.218 837.21 141.601C836.765 144.899 835.162 147.523 832.402 149.473C829.738 151.351 826.545 152.037 822.825 151.532Z" fill="white"/>
<path d="M846.822 59.8466L848.791 60.1981L849.156 58.1451L847.09 57.8646L846.822 59.8466ZM836.086 120.263L835.818 122.245L837.719 122.504L838.054 120.615L836.086 120.263ZM817.694 117.767L815.703 117.58L815.526 119.491L817.427 119.749L817.694 117.767ZM823.357 56.661L823.625 54.679L821.559 54.3985L821.366 56.4749L823.357 56.661ZM813.884 146.959L812.316 148.199L812.338 148.228L812.362 148.256L813.884 146.959ZM816.161 130.088L815.006 128.454L814.992 128.464L814.977 128.475L816.161 130.088ZM834.679 132.602L833.111 133.842L833.121 133.856L833.133 133.87L834.679 132.602ZM832.402 149.473L833.554 151.109L833.557 151.107L832.402 149.473ZM844.853 59.4951L834.117 119.912L838.054 120.615L848.791 60.1981L844.853 59.4951ZM836.353 118.281L817.962 115.785L817.427 119.749L835.818 122.245L836.353 118.281ZM819.686 117.953L825.349 56.8472L821.366 56.4749L815.703 117.58L819.686 117.953ZM823.09 58.6431L846.555 61.8287L847.09 57.8646L823.625 54.679L823.09 58.6431ZM823.092 149.55C819.694 149.088 817.193 147.762 815.406 145.663L812.362 148.256C814.886 151.22 818.345 152.942 822.557 153.514L823.092 149.55ZM815.452 145.719C813.73 143.542 813.071 141.136 813.444 138.374L809.48 137.836C808.963 141.671 809.918 145.167 812.316 148.199L815.452 145.719ZM813.444 138.374C813.83 135.513 815.12 133.333 817.344 131.702L814.977 128.475C811.85 130.768 810.007 133.932 809.48 137.836L813.444 138.374ZM817.315 131.722C819.606 130.104 822.364 129.461 825.741 129.92L826.276 125.956C822.043 125.381 818.236 126.172 815.006 128.454L817.315 131.722ZM825.741 129.92C829.022 130.365 831.415 131.698 833.111 133.842L836.247 131.362C833.823 128.297 830.437 126.52 826.276 125.956L825.741 129.92ZM833.133 133.87C834.921 136.052 835.611 138.493 835.228 141.332L839.192 141.87C839.722 137.943 838.725 134.385 836.225 131.335L833.133 133.87ZM835.228 141.332C834.859 144.07 833.563 146.204 831.247 147.839L833.557 151.107C836.762 148.843 838.671 145.728 839.192 141.87L835.228 141.332ZM831.249 147.838C829.06 149.381 826.394 149.998 823.092 149.55L822.557 153.514C826.697 154.076 830.415 153.321 833.554 151.109L831.249 147.838Z" fill="black"/>
<path d="M1008.3 186.237L973.728 236.928L957.999 227.077L988.233 173.668L1008.3 186.237ZM948.817 259.99C945.562 257.952 943.473 255.335 942.548 252.138C941.741 248.913 942.217 245.889 943.975 243.063C945.779 240.166 948.303 238.373 951.545 237.685C954.86 237.043 958.145 237.741 961.399 239.779C964.582 241.772 966.576 244.38 967.384 247.604C968.263 250.874 967.801 253.957 965.997 256.855C964.238 259.68 961.701 261.414 958.386 262.057C955.189 262.672 951.999 261.983 948.817 259.99Z" fill="white"/>
<path d="M1008.3 186.237L1009.95 187.369L1011.13 185.646L1009.36 184.539L1008.3 186.237ZM973.728 236.928L972.671 238.626L974.297 239.644L975.378 238.06L973.728 236.928ZM957.999 227.077L956.261 226.087L955.316 227.757L956.942 228.775L957.999 227.077ZM988.233 173.668L989.29 171.971L987.522 170.864L986.495 172.679L988.233 173.668ZM942.548 252.138L940.611 252.623L940.619 252.658L940.63 252.693L942.548 252.138ZM951.545 237.685L951.164 235.719L951.147 235.723L951.13 235.726L951.545 237.685ZM967.384 247.604L965.446 248.09L965.45 248.107L965.455 248.124L967.384 247.604ZM958.386 262.057L958.765 264.023L958.768 264.023L958.386 262.057ZM1006.65 185.106L972.079 235.797L975.378 238.06L1009.95 187.369L1006.65 185.106ZM974.785 235.23L959.056 225.379L956.942 228.775L972.671 238.626L974.785 235.23ZM959.736 228.067L989.97 174.658L986.495 172.679L956.261 226.087L959.736 228.067ZM987.176 175.366L1007.24 187.935L1009.36 184.539L989.29 171.971L987.176 175.366ZM949.874 258.292C946.968 256.473 945.233 254.232 944.467 251.582L940.63 252.693C941.713 256.437 944.157 259.432 947.76 261.688L949.874 258.292ZM944.486 251.652C943.811 248.957 944.198 246.491 945.67 244.125L942.28 242.002C940.235 245.287 939.671 248.87 940.611 252.623L944.486 251.652ZM945.67 244.125C947.197 241.674 949.266 240.216 951.961 239.644L951.13 235.726C947.34 236.53 944.362 238.658 942.28 242.002L945.67 244.125ZM951.927 239.651C954.678 239.118 957.454 239.668 960.342 241.477L962.456 238.081C958.836 235.814 955.043 234.968 951.164 235.719L951.927 239.651ZM960.342 241.477C963.148 243.234 964.782 245.436 965.446 248.09L969.321 247.119C968.371 243.325 966.015 240.31 962.456 238.081L960.342 241.477ZM965.455 248.124C966.189 250.851 965.816 253.362 964.302 255.794L967.692 257.917C969.786 254.553 970.338 250.897 969.312 247.085L965.455 248.124ZM964.302 255.794C962.842 258.139 960.785 259.552 958.005 260.091L958.768 264.023C962.617 263.277 965.635 261.222 967.692 257.917L964.302 255.794ZM958.008 260.09C955.38 260.596 952.698 260.061 949.874 258.292L947.76 261.688C951.3 263.906 954.998 264.748 958.765 264.023L958.008 260.09Z" fill="black"/>
<path d="M177.505 217.183C173.031 221.67 167.88 224.752 162.051 226.429C156.267 228.061 150.415 228.129 144.495 226.633C138.576 225.047 133.289 221.92 128.635 217.251C123.98 212.583 120.885 207.303 119.349 201.411C117.858 195.474 117.925 189.605 119.552 183.803C121.224 177.957 124.297 172.79 128.77 168.303C133.244 163.816 138.373 160.757 144.157 159.125C149.986 157.448 155.815 157.403 161.644 158.989C167.518 160.53 172.783 163.635 177.437 168.303C182.091 172.971 185.209 178.274 186.791 184.211C188.327 190.103 188.282 195.95 186.655 201.751C185.028 207.552 181.978 212.696 177.505 217.183ZM166.931 206.578C170.727 202.771 172.489 198.465 172.218 193.661C171.992 188.811 169.8 184.302 165.643 180.132C161.441 175.917 156.945 173.719 152.155 173.538C147.365 173.266 143.072 175.033 139.276 178.841C135.435 182.693 133.605 187.021 133.786 191.825C134.012 196.584 136.249 201.094 140.496 205.354C144.699 209.569 149.195 211.813 153.985 212.085C158.775 212.266 163.09 210.43 166.931 206.578Z" fill="white"/>
<path d="M162.051 226.429L162.591 228.357L162.601 228.354L162.051 226.429ZM144.495 226.633L143.98 228.568L143.994 228.572L144.008 228.575L144.495 226.633ZM119.349 201.411L117.412 201.9L117.415 201.909L117.417 201.918L119.349 201.411ZM119.552 183.803L117.633 183.251L117.63 183.261L119.552 183.803ZM144.157 159.125L144.697 161.054L144.707 161.051L144.157 159.125ZM161.644 158.989L161.121 160.922L161.13 160.925L161.139 160.927L161.644 158.989ZM186.791 184.211L188.723 183.704L188.72 183.694L186.791 184.211ZM186.655 201.751L188.577 202.293L188.577 202.293L186.655 201.751ZM172.218 193.661L170.223 193.754L170.223 193.764L170.224 193.774L172.218 193.661ZM152.155 173.538L152.042 175.538L152.061 175.539L152.079 175.539L152.155 173.538ZM133.786 191.825L131.791 191.901L131.791 191.911L131.791 191.921L133.786 191.825ZM153.985 212.085L153.872 214.084L153.891 214.085L153.909 214.086L153.985 212.085ZM176.093 215.767C171.848 220.025 166.989 222.925 161.5 224.504L162.601 228.354C168.77 226.58 174.215 223.316 178.917 218.6L176.093 215.767ZM161.51 224.501C156.067 226.036 150.57 226.102 144.983 224.691L144.008 228.575C150.26 230.155 156.466 230.085 162.591 228.357L161.51 224.501ZM145.011 224.698C139.456 223.209 134.472 220.273 130.047 215.835L127.223 218.668C132.106 223.566 137.696 226.884 143.98 228.568L145.011 224.698ZM130.047 215.835C125.622 211.396 122.72 206.423 121.281 200.904L117.417 201.918C119.05 208.183 122.339 213.77 127.223 218.668L130.047 215.835ZM121.285 200.922C119.878 195.318 119.944 189.805 121.475 184.346L117.63 183.261C115.907 189.405 115.837 195.63 117.412 201.9L121.285 200.922ZM121.472 184.356C123.046 178.85 125.938 173.977 130.182 169.719L127.358 166.887C122.656 171.603 119.402 177.064 117.633 183.251L121.472 184.356ZM130.182 169.719C134.427 165.462 139.26 162.587 144.697 161.053L143.616 157.197C137.485 158.927 132.06 162.17 127.358 166.887L130.182 169.719ZM144.707 161.051C150.187 159.474 155.645 159.432 161.121 160.922L162.167 157.056C155.984 155.374 149.784 155.423 143.606 157.2L144.707 161.051ZM161.139 160.927C166.641 162.371 171.599 165.281 176.025 169.719L178.849 166.887C173.966 161.989 168.395 158.69 162.149 157.052L161.139 160.927ZM176.025 169.719C180.45 174.158 183.377 179.156 184.861 184.728L188.72 183.694C187.041 177.392 183.732 171.785 178.849 166.887L176.025 169.719ZM184.859 184.718C186.306 190.269 186.262 195.754 184.733 201.209L188.577 202.293C190.301 196.146 190.348 189.937 188.723 183.704L184.859 184.718ZM184.733 201.209C183.203 206.662 180.337 211.509 176.093 215.767L178.917 218.6C183.619 213.883 186.853 208.443 188.577 202.293L184.733 201.209ZM168.343 207.994C172.488 203.837 174.519 198.993 174.212 193.548L170.224 193.774C170.459 197.937 168.965 201.705 165.519 205.162L168.343 207.994ZM174.213 193.568C173.959 188.118 171.485 183.159 167.055 178.716L164.231 181.549C168.116 185.445 170.025 189.505 170.223 193.754L174.213 193.568ZM167.055 178.716C162.586 174.233 157.637 171.741 152.23 171.536L152.079 175.539C156.252 175.697 160.295 177.601 164.231 181.549L167.055 178.716ZM152.268 171.538C146.839 171.23 142.009 173.267 137.864 177.424L140.688 180.257C144.135 176.8 147.891 175.302 152.042 175.538L152.268 171.538ZM137.864 177.424C133.688 181.613 131.586 186.463 131.791 191.901L135.782 191.75C135.625 187.58 137.183 183.773 140.688 180.257L137.864 177.424ZM131.791 191.921C132.047 197.299 134.582 202.255 139.084 206.771L141.908 203.938C137.916 199.933 135.977 195.87 135.781 191.73L131.791 191.921ZM139.084 206.771C143.547 211.247 148.483 213.778 153.872 214.084L154.098 210.085C149.907 209.847 145.85 207.891 141.908 203.938L139.084 206.771ZM153.909 214.086C159.331 214.291 164.167 212.183 168.343 207.994L165.519 205.162C162.013 208.678 158.218 210.24 154.06 210.083L153.909 214.086Z" fill="black"/>
<path d="M866.993 229.314C861.799 225.686 857.864 221.141 855.189 215.681C852.566 210.257 851.466 204.492 851.889 198.386C852.401 192.263 854.537 186.495 858.297 181.08C862.057 175.666 866.693 171.683 872.205 169.132C877.769 166.617 883.542 165.654 889.523 166.241C895.557 166.866 901.171 168.992 906.365 172.621C911.559 176.249 915.467 180.775 918.09 186.199C920.765 191.659 921.839 197.406 921.312 203.439C920.836 209.509 918.719 215.251 914.959 220.666C911.198 226.08 906.544 230.089 900.996 232.693C895.484 235.244 889.738 236.226 883.756 235.639C877.775 235.051 872.187 232.943 866.993 229.314ZM875.536 217.014C879.943 220.092 884.48 221.076 889.147 219.965C893.867 218.891 897.907 215.936 901.265 211.099C904.66 206.211 906.024 201.386 905.356 196.625C904.777 191.849 902.284 187.921 897.877 184.843C893.418 181.727 888.846 180.68 884.163 181.702C879.532 182.761 875.5 185.76 872.069 190.702C868.674 195.591 867.266 200.423 867.845 205.2C868.512 209.96 871.076 213.898 875.536 217.014Z" fill="white"/>
<path d="M855.189 215.681L853.392 216.553L853.397 216.562L855.189 215.681ZM851.889 198.386L849.899 198.216L849.897 198.231L849.896 198.245L851.889 198.386ZM872.205 169.132L871.382 167.306L871.374 167.31L871.366 167.314L872.205 169.132ZM889.523 166.241L889.726 164.249L889.716 164.248L889.523 166.241ZM918.09 186.199L916.293 187.071L916.298 187.081L918.09 186.199ZM921.312 203.439L919.322 203.263L919.321 203.272L919.32 203.281L921.312 203.439ZM900.996 232.693L901.835 234.511L901.844 234.507L900.996 232.693ZM883.756 235.639L883.563 237.632L883.563 237.632L883.756 235.639ZM889.147 219.965L888.703 218.012L888.694 218.015L888.684 218.017L889.147 219.965ZM905.356 196.625L903.373 196.865L903.376 196.884L903.378 196.903L905.356 196.625ZM884.163 181.702L883.736 179.745L883.727 179.747L883.717 179.749L884.163 181.702ZM867.845 205.2L865.862 205.439L865.864 205.458L865.867 205.477L867.845 205.2ZM868.134 227.672C863.205 224.228 859.501 219.941 856.982 214.799L853.397 216.562C856.228 222.341 860.393 227.143 865.852 230.957L868.134 227.672ZM856.986 214.809C854.518 209.705 853.483 204.29 853.882 198.526L849.896 198.245C849.45 204.695 850.615 210.809 853.392 216.553L856.986 214.809ZM853.879 198.555C854.36 192.809 856.361 187.374 859.936 182.226L856.657 179.935C852.712 185.616 850.442 191.717 849.899 198.216L853.879 198.555ZM859.936 182.226C863.511 177.078 867.88 173.34 873.043 170.95L871.366 167.314C865.506 170.026 860.602 174.254 856.657 179.935L859.936 182.226ZM873.027 170.958C878.279 168.585 883.702 167.682 889.33 168.235L889.716 164.248C883.382 163.626 877.259 164.65 871.382 167.306L873.027 170.958ZM889.32 168.233C895.002 168.821 900.296 170.82 905.224 174.263L907.506 170.978C902.046 167.164 896.112 164.91 889.726 164.249L889.32 168.233ZM905.224 174.263C910.153 177.707 913.828 181.973 916.293 187.071L919.887 185.327C917.107 179.578 912.965 174.792 907.506 170.978L905.224 174.263ZM916.298 187.081C918.813 192.214 919.817 197.595 919.322 203.263L923.301 203.616C923.861 197.217 922.718 191.105 919.883 185.318L916.298 187.081ZM919.32 203.281C918.875 208.967 916.894 214.372 913.319 219.52L916.598 221.811C920.543 216.13 922.798 210.052 923.303 203.598L919.32 203.281ZM913.319 219.52C909.744 224.668 905.355 228.436 900.148 230.879L901.844 234.507C907.734 231.743 912.653 227.492 916.598 221.811L913.319 219.52ZM900.157 230.875C894.964 233.278 889.573 234.198 883.949 233.645L883.563 237.632C889.902 238.254 896.004 237.21 901.835 234.511L900.157 230.875ZM883.949 233.645C878.326 233.093 873.062 231.115 868.134 227.672L865.852 230.957C871.312 234.771 877.223 237.009 883.563 237.632L883.949 233.645ZM874.395 218.656C879.207 222.018 884.32 223.173 889.611 221.914L888.684 218.017C884.639 218.98 880.678 218.167 876.676 215.371L874.395 218.656ZM889.591 221.918C894.896 220.711 899.326 217.398 902.905 212.245L899.626 209.954C896.487 214.473 892.839 217.071 888.703 218.012L889.591 221.918ZM902.905 212.245C906.515 207.046 908.088 201.722 907.334 196.348L903.378 196.903C903.96 201.05 902.805 205.375 899.626 209.954L902.905 212.245ZM907.339 196.386C906.683 190.972 903.83 186.562 899.018 183.2L896.736 186.485C900.738 189.281 902.872 192.726 903.373 196.865L907.339 196.386ZM899.018 183.2C894.169 179.812 889.038 178.588 883.736 179.745L884.589 183.659C888.655 182.772 892.666 183.642 896.736 186.485L899.018 183.2ZM883.717 179.749C878.483 180.946 874.067 184.319 870.429 189.556L873.708 191.847C876.934 187.202 880.58 184.575 884.608 183.655L883.717 179.749ZM870.429 189.556C866.824 194.748 865.21 200.065 865.862 205.439L869.827 204.96C869.321 200.781 870.524 196.433 873.708 191.847L870.429 189.556ZM865.867 205.477C866.623 210.865 869.546 215.269 874.395 218.656L876.676 215.371C872.606 212.527 870.402 209.055 869.822 204.922L865.867 205.477Z" fill="black"/>
<path d="M168.552 122.416L157.45 113.14C155.08 114.237 152.713 115.07 150.348 115.639C144.188 117.122 138.183 117.053 132.334 115.432C126.546 113.797 121.518 110.794 117.248 106.424C113.025 101.977 110.147 96.5475 108.613 90.1364C107.08 83.7253 107.196 77.6084 108.961 71.7856C110.789 65.9479 113.912 60.9834 118.329 56.8923C122.809 52.7861 128.129 49.9918 134.289 48.5093C140.449 47.0268 146.423 47.1032 152.21 48.7384C158.059 50.3587 163.057 53.3689 167.202 57.7691C171.41 62.1543 174.281 67.5524 175.815 73.9635C177.155 79.5655 177.232 84.9776 176.047 90.1999C174.908 95.3451 172.682 99.9293 169.367 103.953L187.873 117.766L168.552 122.416ZM124.947 86.2055C126.332 91.9942 128.997 96.257 132.942 98.9939C136.934 101.654 141.575 102.347 146.864 101.074C152.09 99.8162 155.843 97.07 158.12 92.8357C160.459 88.5863 160.944 83.5984 159.574 77.872C158.189 72.0833 155.501 67.8591 151.508 65.1995C147.563 62.4626 142.978 61.7231 137.751 62.981C132.462 64.2538 128.64 66.9838 126.286 71.1709C123.993 75.3431 123.547 80.3546 124.947 86.2055Z" fill="white"/>
<path d="M168.552 122.416L167.27 123.952L168.041 124.596L169.018 124.361L168.552 122.416ZM157.45 113.14L158.732 111.604L157.761 110.793L156.612 111.325L157.45 113.14ZM132.334 115.432L131.788 117.358L131.798 117.361L132.334 115.432ZM117.248 106.424L115.797 107.803L115.807 107.813L115.817 107.824L117.248 106.424ZM108.961 71.7856L107.053 71.1896L107.051 71.1982L107.048 71.2068L108.961 71.7856ZM118.329 56.8923L116.98 55.4178L116.972 55.4248L118.329 56.8923ZM152.21 48.7384L151.664 50.6638L151.674 50.6666L152.21 48.7384ZM167.202 57.7691L165.747 59.1424L165.753 59.149L165.759 59.1556L167.202 57.7691ZM176.047 90.1999L174.097 89.7591L174.094 89.7698L176.047 90.1999ZM169.367 103.953L167.825 102.681L166.489 104.302L168.17 105.557L169.367 103.953ZM187.873 117.766L188.338 119.711L192.487 118.713L189.069 116.162L187.873 117.766ZM132.942 98.9939L131.801 100.638L131.817 100.649L131.832 100.66L132.942 98.9939ZM158.12 92.8357L156.369 91.8719L156.364 91.8806L156.359 91.8893L158.12 92.8357ZM151.508 65.1995L150.368 66.844L150.383 66.8547L150.399 66.8652L151.508 65.1995ZM126.286 71.1709L124.543 70.1915L124.539 70.2001L124.534 70.2088L126.286 71.1709ZM169.835 120.879L158.732 111.604L156.167 114.676L167.27 123.952L169.835 120.879ZM156.612 111.325C154.353 112.37 152.11 113.158 149.883 113.694L150.813 117.584C153.315 116.982 155.807 116.104 158.287 114.956L156.612 111.325ZM149.883 113.694C144.038 115.101 138.378 115.03 132.869 113.504L131.798 117.361C137.989 119.075 144.338 119.143 150.813 117.584L149.883 113.694ZM132.879 113.507C127.433 111.968 122.708 109.149 118.678 105.025L115.817 107.824C120.327 112.439 125.659 115.626 131.788 117.358L132.879 113.507ZM118.698 105.045C114.735 100.872 112.016 95.7639 110.558 89.6685L106.669 90.6044C108.278 97.3311 111.315 103.082 115.797 107.803L118.698 105.045ZM110.558 89.6685C109.099 83.5728 109.22 77.8188 110.874 72.3644L107.048 71.2068C105.171 77.398 105.06 83.8779 106.669 90.6044L110.558 89.6685ZM110.869 72.3817C112.594 66.8718 115.53 62.2095 119.686 58.3597L116.972 55.4248C112.294 59.7574 108.984 65.0239 107.053 71.1896L110.869 72.3817ZM119.679 58.3667C123.897 54.5 128.909 51.8611 134.754 50.4544L133.823 46.5642C127.348 48.1225 121.72 51.0723 116.98 55.4178L119.679 58.3667ZM134.754 50.4544C140.599 49.0477 146.224 49.1266 151.664 50.6638L152.755 46.8131C146.621 45.0797 140.298 45.0059 133.823 46.5642L134.754 50.4544ZM151.674 50.6666C157.174 52.1899 161.853 55.0089 165.747 59.1424L168.658 56.3958C164.261 51.729 158.945 48.5276 152.745 46.8103L151.674 50.6666ZM165.759 59.1556C169.701 63.2633 172.412 68.3358 173.87 74.4315L177.759 73.4956C176.15 66.7691 173.119 61.0452 168.645 56.3826L165.759 59.1556ZM173.87 74.4315C175.144 79.7582 175.209 84.8586 174.097 89.7591L177.996 90.6408C179.255 85.0966 179.165 79.3728 177.759 73.4956L173.87 74.4315ZM174.094 89.7698C173.024 94.6096 170.936 98.9047 167.825 102.681L170.909 105.224C174.427 100.954 176.793 96.0805 177.999 90.6301L174.094 89.7698ZM168.17 105.557L186.676 119.37L189.069 116.162L170.564 102.349L168.17 105.557ZM187.407 115.821L168.087 120.471L169.018 124.361L188.338 119.711L187.407 115.821ZM123.002 86.6735C124.473 92.8211 127.362 97.559 131.801 100.638L134.082 97.3493C130.631 94.9549 128.19 91.1672 126.891 85.7375L123.002 86.6735ZM131.832 100.66C136.351 103.67 141.578 104.403 147.329 103.019L146.398 99.129C141.571 100.291 137.517 99.6369 134.051 97.3281L131.832 100.66ZM147.329 103.019C153.036 101.646 157.299 98.5814 159.88 93.7821L156.359 91.8893C154.386 95.5587 151.145 97.9867 146.398 99.129L147.329 103.019ZM159.871 93.7994C162.5 89.0239 162.978 83.5056 161.519 77.404L157.63 78.3399C158.91 83.6912 158.419 88.1487 156.369 91.8719L159.871 93.7994ZM161.519 77.404C160.046 71.2481 157.124 66.5359 152.618 63.5338L150.399 66.8652C153.877 69.1824 156.333 72.9186 157.63 78.3399L161.519 77.404ZM152.649 63.5549C148.178 60.4528 142.993 59.6623 137.285 61.0358L138.216 64.9261C142.962 63.7838 146.949 64.4723 150.368 66.844L152.649 63.5549ZM137.285 61.0358C131.535 62.4198 127.209 65.4519 124.543 70.1915L128.028 72.1503C130.072 68.5157 133.389 66.0878 138.216 64.9261L137.285 61.0358ZM124.534 70.2088C121.943 74.9238 121.519 80.4715 123.002 86.6735L126.891 85.7375C125.576 80.2377 126.044 75.7623 128.037 72.1331L124.534 70.2088Z" fill="black"/>
<path d="M936.446 129.698L934.492 115.336C932.005 114.544 929.698 113.558 927.571 112.38C922.029 109.309 917.644 105.198 914.418 100.045C911.247 94.9227 909.556 89.3034 909.345 83.1866C909.22 77.0448 910.747 71.0868 913.927 65.3124C917.107 59.5381 921.306 55.0967 926.525 51.9884C931.8 48.911 937.442 47.3545 943.453 47.3188C949.52 47.3141 955.325 48.847 960.867 51.9174C966.409 54.9878 970.766 59.084 973.936 64.206C977.163 69.359 978.826 74.9628 978.925 81.0176C979.081 87.1033 977.569 93.0333 974.389 98.8077C971.611 103.853 968.028 107.905 963.641 110.962C959.341 113.994 954.615 115.875 949.464 116.606L953.829 139.328L936.446 129.698ZM928.623 73.4536C925.752 78.6674 924.851 83.6193 925.922 88.3095C927.079 92.9746 930.037 96.6252 934.795 99.2614C939.498 101.867 944.113 102.375 948.641 100.786C953.225 99.2283 956.937 95.8706 959.777 90.713C962.649 85.4993 963.506 80.5598 962.348 75.8947C961.278 71.2046 958.392 67.5569 953.689 64.9517C948.93 62.3155 944.275 61.7483 939.721 63.2499C935.224 64.7826 931.525 68.1838 928.623 73.4536Z" fill="white"/>
<path d="M936.446 129.698L934.466 129.966L934.602 130.963L935.481 131.45L936.446 129.698ZM934.492 115.336L936.471 115.068L936.3 113.812L935.094 113.428L934.492 115.336ZM914.418 100.045L912.72 101.098L912.726 101.107L914.418 100.045ZM909.345 83.1866L907.347 83.2247L907.347 83.239L907.348 83.2533L909.345 83.1866ZM926.525 51.9884L925.518 50.2577L925.51 50.2623L925.503 50.2669L926.525 51.9884ZM943.453 47.3188L943.449 45.3166L943.439 45.3167L943.453 47.3188ZM973.936 64.206L972.239 65.2598L972.244 65.2685L973.936 64.206ZM978.925 81.0176L976.928 81.0479L976.928 81.057L976.928 81.0662L978.925 81.0176ZM963.641 110.962L962.499 109.317L962.49 109.324L963.641 110.962ZM949.464 116.606L949.181 114.624L947.105 114.919L947.502 116.982L949.464 116.606ZM953.829 139.328L952.864 141.08L956.597 143.147L955.791 138.952L953.829 139.328ZM925.922 88.3095L923.974 88.7533L923.978 88.7717L923.983 88.79L925.922 88.3095ZM948.641 100.786L947.997 98.8899L947.988 98.893L947.979 98.8963L948.641 100.786ZM962.348 75.8947L960.401 76.3386L960.405 76.357L960.41 76.3753L962.348 75.8947ZM939.721 63.2499L939.095 61.348L939.085 61.3511L939.076 61.3543L939.721 63.2499ZM938.426 129.43L936.471 115.068L932.512 115.604L934.466 129.966L938.426 129.43ZM935.094 113.428C932.724 112.673 930.54 111.738 928.536 110.628L926.606 114.132C928.857 115.379 931.286 116.415 933.889 117.244L935.094 113.428ZM928.536 110.628C923.277 107.714 919.148 103.835 916.11 98.9822L912.726 101.107C916.141 106.561 920.781 110.904 926.606 114.132L928.536 110.628ZM916.115 98.991C913.132 94.1712 911.541 88.8931 911.341 83.1199L907.348 83.2533C907.571 89.7136 909.363 95.6742 912.72 101.098L916.115 98.991ZM911.342 83.1486C911.225 77.3847 912.653 71.7717 915.677 66.2816L912.178 64.3432C908.841 70.4019 907.215 76.705 907.347 83.2247L911.342 83.1486ZM915.677 66.2816C918.7 60.7914 922.659 56.6215 927.547 53.7098L925.503 50.2669C919.954 53.5719 915.514 58.2848 912.178 64.3432L915.677 66.2816ZM927.532 53.719C932.51 50.8145 937.812 49.3545 943.468 49.3209L943.439 45.3167C937.073 45.3545 931.089 47.0075 925.518 50.2577L927.532 53.719ZM943.457 49.321C949.17 49.3166 954.643 50.7559 959.902 53.6693L961.832 50.1655C956.006 46.9381 949.869 45.3117 943.449 45.3167L943.457 49.321ZM959.902 53.6693C965.161 56.5828 969.259 60.4451 972.239 65.2597L975.633 63.1522C972.273 57.7229 967.657 53.3928 961.832 50.1655L959.902 53.6693ZM972.244 65.2685C975.278 70.113 976.834 75.3602 976.928 81.0479L980.923 80.9872C980.817 74.5655 979.048 68.6049 975.628 63.1435L972.244 65.2685ZM976.928 81.0662C977.074 86.7669 975.663 92.3482 972.64 97.8385L976.139 99.7768C979.475 93.7184 981.088 87.4397 980.923 80.9689L976.928 81.0662ZM972.64 97.8385C969.998 102.636 966.615 106.449 962.499 109.317L964.783 112.606C969.44 109.36 973.224 105.07 976.139 99.7768L972.64 97.8385ZM962.49 109.324C958.445 112.176 954.016 113.938 949.181 114.624L949.746 118.589C955.214 117.813 960.237 115.812 964.792 112.6L962.49 109.324ZM947.502 116.982L951.867 139.704L955.791 138.952L951.426 116.23L947.502 116.982ZM954.794 137.576L937.411 127.946L935.481 131.45L952.864 141.08L954.794 137.576ZM926.873 72.4844C923.824 78.0215 922.77 83.4763 923.974 88.7533L927.869 87.8656C926.933 83.7623 927.679 79.3132 930.372 74.4228L926.873 72.4844ZM923.983 88.79C925.293 94.0707 928.656 98.147 933.83 101.013L935.76 97.5095C931.417 95.1034 928.865 91.8784 927.86 87.8289L923.983 88.79ZM933.83 101.013C938.965 103.858 944.171 104.477 949.304 102.676L947.979 98.8963C944.055 100.273 940.03 99.8751 935.76 97.5095L933.83 101.013ZM949.285 102.682C954.436 100.932 958.501 97.1777 961.527 91.6822L958.028 89.7438C955.374 94.5636 952.014 97.525 947.997 98.8899L949.285 102.682ZM961.527 91.6822C964.58 86.1376 965.593 80.68 964.287 75.4142L960.41 76.3753C961.418 80.4396 960.717 84.8609 958.028 89.7438L961.527 91.6822ZM964.296 75.4509C963.083 70.1349 959.789 66.0445 954.654 63.1998L952.724 66.7036C956.995 69.0693 959.473 72.2742 960.401 76.3386L964.296 75.4509ZM954.654 63.1998C949.48 60.3335 944.249 59.6482 939.095 61.348L940.348 65.1518C944.301 63.8483 948.381 64.2976 952.724 66.7036L954.654 63.1998ZM939.076 61.3543C933.994 63.0864 929.949 66.8985 926.873 72.4844L930.372 74.4228C933.1 69.4692 936.455 66.4788 940.367 65.1455L939.076 61.3543Z" fill="black"/>
</svg>
