<svg width="280" height="100" viewBox="0 0 280 100" fill="none" xmlns="http://www.w3.org/2000/svg">
<path d="M142.248 63.776L139.752 60.032C139.048 60.16 138.333 60.224 137.608 60.224C135.496 60.224 133.555 59.7333 131.784 58.752C130.013 57.7493 128.605 56.3733 127.56 54.624C126.536 52.8533 126.024 50.8587 126.024 48.64C126.024 46.4213 126.536 44.4373 127.56 42.688C128.605 40.9173 130.013 39.5413 131.784 38.56C133.555 37.5787 135.496 37.088 137.608 37.088C139.741 37.088 141.683 37.5787 143.432 38.56C145.203 39.5413 146.6 40.9173 147.624 42.688C148.648 44.4373 149.16 46.4213 149.16 48.64C149.16 50.496 148.787 52.2133 148.04 53.792C147.293 55.3493 146.269 56.6507 144.968 57.696L149.736 63.776H142.248ZM132.424 48.64C132.424 50.4107 132.883 51.8187 133.8 52.864C134.717 53.888 135.987 54.4 137.608 54.4C139.208 54.4 140.467 53.8773 141.384 52.832C142.323 51.7867 142.792 50.3893 142.792 48.64C142.792 46.848 142.323 45.44 141.384 44.416C140.467 43.3707 139.208 42.848 137.608 42.848C135.987 42.848 134.717 43.3707 133.8 44.416C132.883 45.44 132.424 46.848 132.424 48.64ZM162.827 60.224C160.715 60.224 158.773 59.7333 157.003 58.752C155.232 57.7493 153.824 56.3733 152.779 54.624C151.755 52.8533 151.243 50.8587 151.243 48.64C151.243 46.4213 151.755 44.4373 152.779 42.688C153.824 40.9173 155.232 39.5413 157.003 38.56C158.773 37.5787 160.715 37.088 162.827 37.088C164.96 37.088 166.901 37.5787 168.651 38.56C170.421 39.5413 171.819 40.9173 172.843 42.688C173.867 44.4373 174.379 46.4213 174.379 48.64C174.379 50.8587 173.867 52.8533 172.843 54.624C171.819 56.3733 170.421 57.7493 168.651 58.752C166.88 59.7333 164.939 60.224 162.827 60.224ZM162.827 54.4C164.427 54.4 165.685 53.8773 166.603 52.832C167.541 51.7867 168.011 50.3893 168.011 48.64C168.011 46.848 167.541 45.44 166.603 44.416C165.685 43.3707 164.427 42.848 162.827 42.848C161.205 42.848 159.936 43.3707 159.019 44.416C158.101 45.44 157.643 46.848 157.643 48.64C157.643 50.4107 158.101 51.8187 159.019 52.864C159.936 53.888 161.205 54.4 162.827 54.4ZM203.534 37.44V60H197.262V47.552L193.006 60H187.758L183.47 47.456V60H177.198V37.44H184.782L190.446 52.096L195.982 37.44H203.534ZM210.145 60.256C209.035 60.256 208.139 59.9573 207.457 59.36C206.795 58.7413 206.465 57.9627 206.465 57.024C206.465 56.0853 206.795 55.3067 207.457 54.688C208.139 54.0693 209.035 53.76 210.145 53.76C211.233 53.76 212.107 54.0693 212.769 54.688C213.451 55.3067 213.793 56.0853 213.793 57.024C213.793 57.9413 213.451 58.7093 212.769 59.328C212.107 59.9467 211.233 60.256 210.145 60.256ZM223.002 55.2H230.01V60H216.73V37.44H223.002V55.2ZM235.616 40.384C234.507 40.384 233.611 40.0853 232.928 39.488C232.267 38.8693 231.936 38.1013 231.936 37.184C231.936 36.2453 232.267 35.4667 232.928 34.848C233.611 34.2293 234.507 33.92 235.616 33.92C236.704 33.92 237.579 34.2293 238.24 34.848C238.923 35.4667 239.264 36.2453 239.264 37.184C239.264 38.1013 238.923 38.8693 238.24 39.488C237.579 40.0853 236.704 40.384 235.616 40.384ZM238.72 42.048V60H232.448V42.048H238.72ZM251.988 47.264H249.172V60H242.868V47.264H240.916V42.048H242.868V41.888C242.868 39.584 243.54 37.824 244.884 36.608C246.249 35.3707 248.201 34.752 250.74 34.752C251.252 34.752 251.647 34.7627 251.924 34.784V40.128C251.753 40.1067 251.519 40.096 251.22 40.096C250.537 40.096 250.036 40.256 249.716 40.576C249.396 40.8747 249.215 41.3653 249.172 42.048H251.988V47.264ZM271.382 50.816C271.382 51.3067 271.35 51.7973 271.286 52.288H259.414C259.478 53.2693 259.744 54.0053 260.214 54.496C260.704 54.9653 261.323 55.2 262.07 55.2C263.115 55.2 263.862 54.7307 264.31 53.792H270.998C270.72 55.0293 270.176 56.1387 269.366 57.12C268.576 58.08 267.574 58.8373 266.358 59.392C265.142 59.9467 263.798 60.224 262.326 60.224C260.555 60.224 258.976 59.8507 257.59 59.104C256.224 58.3573 255.147 57.2907 254.358 55.904C253.59 54.5173 253.206 52.8853 253.206 51.008C253.206 49.1307 253.59 47.5093 254.358 46.144C255.126 44.7573 256.192 43.6907 257.558 42.944C258.944 42.1973 260.534 41.824 262.326 41.824C264.096 41.824 265.664 42.1867 267.03 42.912C268.395 43.6373 269.462 44.6827 270.23 46.048C270.998 47.392 271.382 48.9813 271.382 50.816ZM264.982 49.248C264.982 48.48 264.726 47.8827 264.214 47.456C263.702 47.008 263.062 46.784 262.294 46.784C261.526 46.784 260.896 46.9973 260.406 47.424C259.915 47.8293 259.595 48.4373 259.446 49.248H264.982Z" fill="white"/>
<path d="M99.7113 49.5C99.89 49.8094 99.89 50.1906 99.7113 50.5L75.2887 92.8013C75.11 93.1107 74.7799 93.3013 74.4226 93.3013L25.5773 93.3013C25.2201 93.3013 24.89 93.1107 24.7113 92.8013L0.288674 50.5C0.110041 50.1906 0.11004 49.8094 0.288673 49.5L24.7113 7.19873C24.89 6.88933 25.2201 6.69873 25.5773 6.69873L74.4226 6.69873C74.7799 6.69873 75.11 6.88933 75.2887 7.19873L99.7113 49.5Z" fill="white"/>
<g clip-path="url(#clip0_101_1267)">
<path d="M72.8524 42.4567C72.7636 42.4213 72.6748 42.4036 72.6037 42.3682C72.6037 42.4036 72.5859 42.4213 72.5859 42.4567C72.6748 42.4744 72.7636 42.4744 72.8524 42.4567Z" fill="black"/>
<path d="M71.2181 50.3167C71.1648 50.4583 70.8984 50.476 70.8096 50.7592C71.0583 50.653 71.307 50.5645 71.5379 50.476C71.4491 50.3698 71.378 50.2813 71.2892 50.175C71.2537 50.2282 71.2359 50.2636 71.2181 50.3167Z" fill="black"/>
<path d="M70.8096 43.9613C70.8806 43.9259 70.9339 43.9082 71.005 43.8728C70.9517 43.8728 70.9162 43.8905 70.8629 43.9082C70.8451 43.9082 70.8273 43.9259 70.8096 43.9613Z" fill="black"/>
<path d="M71.2713 41.8724C71.2357 41.8547 71.218 41.8547 71.1824 41.8547C71.1469 41.9078 71.0936 41.9433 71.0581 41.9964C71.1292 41.961 71.2002 41.9078 71.2713 41.8724Z" fill="black"/>
<path d="M71.1294 51.5736C71.5912 51.6621 71.8932 51.3965 72.2485 51.308C72.1597 51.2018 72.0709 51.0956 71.982 51.0071C71.6801 51.1487 71.3958 51.3257 71.1294 51.5736Z" fill="black"/>
<path d="M72.0884 42.1556C72.0351 42.1379 71.9818 42.1202 71.9285 42.1025C71.893 42.1733 71.8397 42.2265 71.8042 42.2973C71.9108 42.2619 71.9996 42.2088 72.0884 42.1556Z" fill="black"/>
<path d="M70.4189 52.2108C71.3249 52.3524 72.2308 52.1754 73.119 52.3347C72.9591 52.1399 72.7815 51.9452 72.6216 51.7505C71.8756 51.8744 71.1295 51.9098 70.4189 52.2108Z" fill="black"/>
<path d="M66.5285 46.0681C66.3331 46.3691 66.4219 46.7054 66.3864 47.0064C66.3687 47.148 66.3687 47.2896 66.3687 47.4312C66.7062 47.2188 67.0259 47.0064 67.3101 46.7585C67.168 46.4222 66.9904 46.0858 66.5285 46.0681Z" fill="black"/>
<path d="M76.7958 49.8387C76.9912 49.8387 77.2221 49.821 77.2044 49.5732C77.1688 49.2723 76.9024 49.3431 76.707 49.3608C76.5116 49.3785 76.3162 49.4139 76.103 49.4316C76.2629 49.5909 76.4228 49.7502 76.5826 49.8919C76.6182 49.8564 76.707 49.8387 76.7958 49.8387Z" fill="black"/>
<path d="M72.231 52.7774C72.675 52.8659 73.1014 52.8659 73.5455 52.8305C73.4566 52.7243 73.3678 52.6181 73.279 52.5295C72.9237 52.6004 72.5685 52.6889 72.231 52.7774Z" fill="black"/>
<path d="M77.2402 50.5645C77.3823 50.7061 77.5244 50.8477 77.6666 50.9893C77.5777 50.7946 77.4356 50.653 77.2402 50.5645Z" fill="black"/>
<path d="M77.2043 48.8118C77.3464 48.7941 77.4175 48.6702 77.4175 48.5463C77.4175 48.3516 77.2753 48.2985 77.1332 48.2808C76.9378 48.2631 76.7602 48.2808 76.5648 48.2808C76.6536 47.9621 76.9556 48.0683 77.151 47.9798C77.3286 47.909 77.5596 47.8913 77.5063 47.6435C77.4707 47.4487 77.2576 47.4487 77.0977 47.4487C76.174 47.4133 75.2681 47.4841 74.3799 47.732C74.895 48.2277 75.4102 48.741 75.9431 49.2544C76.3339 49.0951 76.7424 48.865 77.2043 48.8118Z" fill="black"/>
<path d="M58.322 53.273C58.9437 53.3438 59.5832 53.273 60.2227 53.2907C61.0753 53.2907 61.8214 52.9897 62.532 52.5295C62.9405 52.2639 63.0293 51.963 62.8162 51.6266C62.6208 51.308 62.2477 51.2195 61.8747 51.485C61.022 52.0692 60.0806 52.2462 59.0681 52.2816C58.1266 52.317 57.345 52.7419 56.7588 53.4854C57.2917 53.4323 57.7891 53.2199 58.322 53.273Z" fill="black"/>
<path d="M54.6983 49.1129C54.8581 48.989 55.018 48.8474 55.0358 48.6172C55.0891 47.9445 55.2134 47.2895 55.1601 46.5991C55.1246 46.2628 54.9825 46.0326 54.645 45.9795C54.3607 45.9264 54.1476 46.2097 54.1298 46.6345C54.0943 47.2895 54.2186 47.9445 54.2719 48.5818C54.3075 48.8297 54.4318 49.0067 54.6983 49.1129Z" fill="black"/>
<path d="M65.2144 48.9889C64.8768 49.0774 64.5216 49.1837 64.3262 49.5377C64.5393 49.8387 64.8413 49.7501 65.09 49.697C65.4808 49.6085 65.8716 49.4846 66.2446 49.3607C66.8664 49.1482 67.4703 48.8827 68.0565 48.5995C67.9677 48.387 67.8789 48.1569 67.7901 47.9268C66.9729 48.3693 66.1203 48.7411 65.2144 48.9889Z" fill="black"/>
<path d="M66.2443 47.8382C66.2088 47.8913 66.1733 47.9445 66.12 47.9976C66.0845 47.9799 66.0489 47.9622 66.0134 47.9445C65.5338 48.1746 65.0186 48.3516 64.4857 48.4932C64.3969 48.5109 64.3436 48.5817 64.3081 48.7057C64.8588 48.9358 66.2976 48.3516 67.6299 47.555C67.5766 47.4134 67.5233 47.2717 67.4523 47.1301C67.0792 47.3957 66.6707 47.6258 66.2443 47.8382Z" fill="black"/>
<path d="M42.6546 52.2994C41.6421 52.264 40.7006 52.087 39.848 51.5028C39.4749 51.2549 39.1019 51.3435 38.9065 51.6444C38.6934 51.9631 38.7822 52.2817 39.1907 52.5472C39.8835 53.0075 40.6296 53.3085 41.5 53.3085C42.1395 53.3085 42.7612 53.3616 43.4007 53.2908C43.9514 53.2376 44.431 53.4501 44.9817 53.5032C44.3777 52.7597 43.5783 52.3348 42.6546 52.2994Z" fill="black"/>
<path d="M47.0599 45.9795C46.7224 46.0326 46.5803 46.2628 46.5447 46.5991C46.4914 47.2718 46.6158 47.9445 46.6691 48.6172C46.6868 48.8474 46.8467 48.989 47.0066 49.1129C47.273 49.0067 47.4152 48.8297 47.4329 48.5818C47.4862 47.9268 47.6106 47.2895 47.575 46.6345C47.5395 46.2097 47.3441 45.9264 47.0599 45.9795Z" fill="black"/>
<path d="M71.1825 50.0689C71.218 50.1043 71.2358 50.1397 71.2713 50.1751C71.3424 50.0335 71.4134 49.9273 71.5023 49.8211C71.5023 49.8034 71.4845 49.8034 71.4845 49.7857C71.147 49.3785 70.7917 49.0068 70.4187 48.635C70.3121 48.7412 70.2233 48.8297 70.1167 48.9183C70.4897 49.29 70.845 49.6618 71.1825 50.0689Z" fill="black"/>
<path d="M77.6841 50.9893C77.7729 51.1663 77.8262 51.3787 77.844 51.6266C77.844 51.662 77.844 51.7151 77.844 51.7505C78.0394 51.9452 78.2348 52.1399 78.4302 52.3347C78.4124 52.1222 78.3946 51.9098 78.3769 51.6974C78.1459 51.4495 77.915 51.2194 77.6841 50.9893Z" fill="black"/>
<path d="M69.8504 48.1216C69.7794 48.2455 69.6906 48.3517 69.584 48.4579C69.6195 48.4933 69.6373 48.511 69.6728 48.5287C69.7261 48.5819 69.7794 48.6173 69.8327 48.6704C69.9393 48.5819 70.0458 48.4756 70.1347 48.3694C70.0458 48.2809 69.9393 48.1924 69.8504 48.1216Z" fill="black"/>
<path d="M76.4053 50.2813C76.5651 50.3344 76.6895 50.4052 76.8316 50.4229C76.9915 50.4583 77.1158 50.4937 77.2224 50.5646C76.9915 50.3344 76.7783 50.122 76.5474 49.8918C76.4586 49.9627 76.4053 50.0866 76.4053 50.2813Z" fill="black"/>
<path d="M69.4239 47.7852C68.9799 48.0861 68.5358 48.3516 68.0562 48.5995C68.0739 48.6172 68.0739 48.6526 68.0917 48.6703C68.1272 48.7588 68.1627 48.8473 68.1983 48.9181C68.4292 48.7942 68.6424 48.6703 68.8733 48.5464C68.8733 48.4048 68.891 48.2631 68.9621 48.1392C69.122 48.1215 69.2641 48.1746 69.3884 48.2631C69.5305 48.1923 69.6549 48.1215 69.797 48.0507C69.6371 47.9445 69.5305 47.856 69.4239 47.7852Z" fill="black"/>
<path d="M74.0247 52.7773C73.8648 52.795 73.705 52.8127 73.5273 52.8305C73.6162 52.9367 73.705 53.0429 73.7938 53.1314C73.9537 53.1137 74.1135 53.096 74.2734 53.0783C74.2024 52.9721 74.1135 52.8659 74.0247 52.7773Z" fill="black"/>
<path d="M68.0385 47.6967C68.0029 47.5905 67.9496 47.502 67.9141 47.3958C67.8253 47.4489 67.7365 47.502 67.6299 47.5728C67.6832 47.6967 67.7365 47.8206 67.772 47.9268C67.8608 47.8737 67.9674 47.8206 68.0562 47.7675C68.0562 47.7498 68.0562 47.7144 68.0385 47.6967Z" fill="black"/>
<path d="M75.9077 49.2368C75.7478 49.2899 75.5702 49.343 75.3926 49.343C75.4281 49.3784 75.4814 49.4315 75.5169 49.467C75.7123 49.4492 75.89 49.4315 76.0854 49.4138C76.0321 49.3607 75.9788 49.3076 75.9077 49.2368Z" fill="black"/>
<path d="M77.7021 57.7871C77.7554 57.8756 77.8798 57.9465 77.862 58.0527C78.0397 58.3005 78.2351 58.5306 78.4127 58.7785C78.4305 58.5838 78.466 58.4067 78.4837 58.212C78.3239 58.0173 78.1818 57.8225 78.0219 57.6101C77.9331 57.7163 77.7732 57.6809 77.7021 57.7871Z" fill="black"/>
<path d="M67.4702 47.1302C67.559 47.0771 67.6479 47.0063 67.7367 46.9532C67.6834 46.8293 67.6301 46.6876 67.5768 46.5637C67.488 46.6345 67.4169 46.7053 67.3281 46.7762C67.3281 46.7762 67.3281 46.7762 67.3281 46.7939C67.3637 46.9001 67.4169 47.024 67.4702 47.1302Z" fill="black"/>
<path d="M73.8828 47.8737C73.9006 47.8737 73.9184 47.856 73.9361 47.856C74.0782 47.8029 74.2026 47.7675 74.3447 47.7144C74.2736 47.6436 74.2026 47.5728 74.1315 47.502C74.0072 47.5728 73.8651 47.6613 73.7407 47.7321C73.794 47.8029 73.8473 47.8383 73.8828 47.8737Z" fill="black"/>
<path d="M71.1294 41.3945C70.8807 41.3768 70.632 41.3237 70.3833 41.306C70.2057 41.5715 70.0458 41.8371 69.8682 42.1203C69.9392 42.1911 70.028 42.2619 70.0991 42.3328C70.5077 42.7222 70.9873 43.0232 71.5202 43.3595C71.6445 43.2887 71.7689 43.2179 71.8932 43.1471C71.4136 42.8461 70.9695 42.5098 70.5254 42.138C70.4011 42.0318 70.2234 41.9433 70.1701 41.6601C70.5254 41.6955 70.8452 41.7663 71.1827 41.8548C71.3603 41.6601 71.5379 41.4653 71.6978 41.2529C71.5202 41.1467 71.3603 41.0405 71.1827 40.9342C71.0406 40.8457 70.9162 40.7749 70.7919 40.6687C70.7208 40.7749 70.6498 40.8811 70.5787 41.0051C70.7563 41.1467 70.934 41.2706 71.1294 41.3945Z" fill="black"/>
<path d="M71.9822 51.0072C72.1065 50.9364 72.2486 50.8833 72.373 50.8301C72.2309 50.6708 72.0888 50.4938 71.9644 50.3345C71.8223 50.3699 71.6802 50.423 71.5381 50.4761C71.6802 50.6531 71.8223 50.8301 71.9822 51.0072Z" fill="black"/>
<path d="M71.8931 43.5896C71.7687 43.6073 71.6444 43.6073 71.5556 43.6073C71.3779 43.6959 71.1825 43.7844 71.0049 43.8729C71.6799 43.7667 72.3194 44.2269 73.0122 44.103C73.0832 43.749 72.799 43.6605 72.6036 43.5542C72.4615 43.4834 72.3372 43.3949 72.195 43.3064C72.0529 43.3595 71.9108 43.4303 71.7865 43.5011C71.822 43.5365 71.8575 43.5719 71.8931 43.5896Z" fill="black"/>
<path d="M71.9287 42.1025C72.0353 41.9255 72.1774 41.7662 72.3195 41.6245C72.1774 41.536 72.0353 41.4652 71.911 41.3767C71.7156 41.5537 71.5024 41.7485 71.2715 41.8724C71.4846 41.9432 71.7156 42.014 71.9287 42.1025Z" fill="black"/>
<path d="M72.5859 42.3505C72.6392 42.1912 72.7103 42.0496 72.8169 41.908C72.7458 41.8549 72.657 41.8195 72.5859 41.7664C72.4083 41.908 72.2484 42.0319 72.0708 42.1558C72.2484 42.2266 72.4261 42.2974 72.5859 42.3505Z" fill="black"/>
<path d="M73.1545 42.5451C73.2256 42.5097 73.3144 42.4566 73.3854 42.4212C73.3677 42.3327 73.3322 42.2618 73.2789 42.2087C73.1368 42.2973 72.9946 42.4035 72.8525 42.4389C72.9591 42.492 73.0479 42.5274 73.1545 42.5451Z" fill="black"/>
<path d="M72.2485 51.308C72.3729 51.4496 72.4972 51.6089 72.6216 51.7506C72.7814 51.7329 72.9236 51.6975 73.0834 51.6621C72.9591 51.5204 72.8347 51.3611 72.7104 51.2195C72.586 51.2372 72.4795 51.2726 72.3551 51.2903C72.3018 51.2903 72.2841 51.308 72.2485 51.308Z" fill="black"/>
<path d="M70.6855 43.9615C70.7388 43.9438 70.7921 43.9261 70.8632 43.9084C70.9875 43.7668 71.1118 43.6605 71.2362 43.5543C71.1651 43.5366 71.0941 43.5189 71.0408 43.5366C70.7566 43.5366 70.4901 43.5897 70.348 43.873C70.2237 44.1385 70.348 44.351 70.5079 44.5457C70.5789 44.6342 70.6678 44.705 70.7388 44.7935C71.2362 45.2892 71.7336 45.7849 72.2309 46.2806C72.3198 46.1743 72.4086 46.0681 72.4974 45.9796C72 45.5193 71.5204 45.0414 71.023 44.5811C70.8809 44.4041 70.7566 44.227 70.6855 43.9615Z" fill="black"/>
<path d="M73.1191 52.3347C73.1724 52.3878 73.2257 52.4586 73.279 52.5117C73.3678 52.494 73.4567 52.4586 73.5632 52.4409C73.4211 52.4055 73.2612 52.3701 73.1191 52.3347Z" fill="black"/>
<path d="M73.2076 47.2187C73.332 47.1479 73.4741 47.0594 73.5984 46.9886C73.5274 46.9177 73.4563 46.8469 73.3675 46.7761C73.1899 46.8115 73.03 46.8469 72.8701 46.8823C72.9945 47.0063 73.101 47.1125 73.2076 47.2187Z" fill="black"/>
<path d="M66.0315 47.9444C66.1025 47.909 66.1736 47.8736 66.2624 47.8382C66.3334 47.7143 66.369 47.5726 66.369 47.4487C66.2624 47.5195 66.1558 47.5726 66.067 47.6258C65.9959 47.6612 65.9426 47.6966 65.8716 47.732C65.8893 47.8028 65.9426 47.8736 66.0315 47.9444Z" fill="black"/>
<path d="M74.3622 47.7322C74.2201 47.7676 74.078 47.8207 73.9537 47.8738C73.9359 47.8738 73.9182 47.8915 73.9004 47.8915C74.3978 48.3872 74.9129 48.8652 75.4103 49.3608C75.5879 49.3431 75.7656 49.3077 75.9254 49.2546C75.3925 48.7235 74.8774 48.2279 74.3622 47.7322Z" fill="black"/>
<path d="M73.1191 52.3347C73.2613 52.3701 73.4034 52.4055 73.5455 52.4409C73.4567 52.4586 73.3678 52.494 73.2613 52.5117C73.3501 52.6179 73.4389 52.7242 73.5277 52.8127C73.6876 52.795 73.8475 52.7773 74.0251 52.7596C73.7053 52.3878 73.3856 52.016 73.0659 51.6443C72.9237 51.6797 72.7639 51.7151 72.604 51.7328C72.7816 51.9452 72.9593 52.14 73.1191 52.3347Z" fill="black"/>
<path d="M72.2486 51.3081C72.2841 51.3081 72.3196 51.2904 72.3374 51.2904C72.4617 51.2726 72.5683 51.2372 72.6927 51.2195C72.5861 51.0956 72.4795 50.954 72.3552 50.8301C72.2308 50.8832 72.0887 50.9363 71.9644 51.0071C72.0709 51.1133 72.1598 51.2018 72.2486 51.3081Z" fill="black"/>
<path d="M71.5381 50.476C71.6802 50.4229 71.8223 50.3875 71.9644 50.3344C71.8223 50.1574 71.6802 49.9981 71.5381 49.821C71.4492 49.9273 71.3604 50.0512 71.3071 50.1751C71.3604 50.2636 71.4492 50.3698 71.5381 50.476Z" fill="black"/>
<path d="M73.4033 42.6159C73.4211 42.5274 73.4033 42.4743 73.4033 42.4211C73.3322 42.4743 73.2434 42.5097 73.1724 42.5451C73.2434 42.5805 73.3145 42.5982 73.4033 42.6159Z" fill="black"/>
<path d="M78.4302 52.317C78.7145 52.6002 79.0164 52.9012 79.3007 53.1844C79.2829 52.972 79.2651 52.7419 79.2296 52.5294C78.9454 52.2462 78.6612 51.9629 78.377 51.6797C78.3947 51.8921 78.4125 52.1046 78.4302 52.317Z" fill="black"/>
<path d="M66.3686 47.4489C66.3864 47.3073 66.3864 47.1657 66.3864 47.0241C66.4219 46.7231 66.3154 46.4045 66.5285 46.0858C67.0081 46.1035 67.168 46.4399 67.3101 46.7762C67.3989 46.7054 67.47 46.6346 67.5588 46.5638C67.5233 46.4576 67.47 46.3691 67.4345 46.2628C67.2924 45.9265 67.0259 45.6964 66.6529 45.6964C66.2621 45.6787 66.0489 45.9796 65.8713 46.2983C65.8002 46.0504 65.7469 45.8203 65.6759 45.5724C65.5515 45.1122 65.3561 44.6873 65.0719 44.2978C64.6633 43.7314 64.2548 43.6605 63.6864 43.9969C63.562 44.0677 63.4909 44.2624 63.26 44.1562C63.4377 43.0941 63.7929 41.9257 62.1232 41.6955C62.7626 40.952 63.0291 40.0315 63.7396 39.3411C64.4679 39.6243 64.912 39.0578 65.3739 38.5445C65.9779 39.0578 66.4752 38.7746 66.9371 38.4205C67.3456 38.1196 67.6832 37.7301 68.1272 37.4469C68.1272 37.5177 68.145 37.5531 68.1272 37.6062C67.8253 38.5267 68.145 38.9693 69.1042 39.0047C69.5661 39.0224 70.0279 39.0047 70.4898 38.8985C70.3655 39.0224 70.2233 39.0932 70.099 39.1818C69.4595 39.6243 69.424 39.9961 69.9569 40.5449C70.1345 40.7219 70.3122 40.8812 70.5076 41.0405C70.5786 40.9343 70.6497 40.8281 70.7207 40.7042C70.5964 40.6157 70.472 40.5272 70.3477 40.4209C69.8503 39.9961 69.8858 39.6597 70.4543 39.3234C70.7918 39.1286 71.147 39.0047 71.5023 38.8277C71.6977 38.7392 71.9464 38.6861 71.9997 38.3851C71.7865 38.1904 71.5556 38.2966 71.3247 38.3497C70.6852 38.4913 70.0635 38.7038 69.3885 38.6684C69.2108 38.6684 69.0332 38.6684 68.8555 38.6507C68.3226 38.5622 68.1628 38.3143 68.3582 37.8009C68.5358 37.2876 68.82 36.8273 69.122 36.367C69.2108 36.2254 69.3707 36.1015 69.3352 35.8713C69.0509 35.9067 68.9444 36.1192 68.8023 36.2608C68.3226 36.7388 67.8608 37.2344 67.3279 37.6416C67.2035 37.7478 67.0792 37.8363 66.9548 37.9249C66.2798 38.3674 66.0844 38.3497 65.5693 37.7655C65.3028 37.7655 65.1785 37.978 65.0719 38.155C64.6989 38.7392 64.2548 39.1463 63.5087 38.7038C63.1357 39.0578 63.1534 39.6066 62.7271 39.8899C62.3186 40.1554 61.8034 40.0846 61.3949 40.3855C61.5192 40.8989 61.9633 40.6334 62.2653 40.775C62.0699 41.2884 61.5014 41.4831 61.2705 41.9434C61.4304 42.3151 61.7146 42.1735 61.9455 42.1735C62.8159 42.1735 62.9758 42.3328 62.958 43.2003C62.9403 43.9084 62.6738 44.5634 62.4429 45.2184C62.3541 45.4662 62.0699 45.8026 62.4429 45.9796C62.7449 46.1212 62.8692 45.7318 63.0113 45.5193C63.2423 45.2184 63.4377 44.882 63.7219 44.6165C64.2725 44.0677 64.5745 44.1031 64.9653 44.7758C65.2495 45.2715 65.3917 45.8203 65.516 46.3691C65.6048 46.7585 65.6936 47.1657 65.7825 47.5551C65.8002 47.6083 65.818 47.6791 65.8357 47.7322C65.9068 47.6968 65.9601 47.6614 66.0311 47.626C66.1555 47.5729 66.2621 47.502 66.3686 47.4489Z" fill="black"/>
<path d="M71.2717 41.8725C71.5027 41.7309 71.6981 41.5539 71.9112 41.3768C71.8402 41.3414 71.7869 41.2883 71.7158 41.2529C71.5382 41.4477 71.3783 41.6601 71.2007 41.8548C71.2184 41.8548 71.2362 41.8725 71.2717 41.8725Z" fill="black"/>
<path d="M69.8326 48.1039C69.8149 48.0862 69.7971 48.0685 69.7616 48.0508C69.6195 48.1216 69.4951 48.1924 69.353 48.2632C69.4241 48.3163 69.5129 48.3871 69.584 48.4579C69.6905 48.334 69.7793 48.2278 69.8326 48.1039Z" fill="black"/>
<path d="M70.4187 48.6349C70.3299 48.5464 70.2233 48.4579 70.1345 48.3694C70.0279 48.4579 69.9391 48.5641 69.8325 48.6703C69.9213 48.7588 70.0279 48.8474 70.1167 48.9359C70.2233 48.8297 70.3121 48.7411 70.4187 48.6349Z" fill="black"/>
<path d="M77.7019 57.7873C77.7552 57.6811 77.9151 57.7165 78.0217 57.628C77.9506 57.5395 77.8796 57.4509 77.8085 57.3624C76.6716 55.8931 75.4815 54.4946 74.2736 53.0784C74.1137 53.0961 73.9538 53.1138 73.7939 53.1315C75.1617 54.7247 76.5118 56.3357 77.8085 57.9997C77.8263 58.0174 77.844 58.0351 77.8618 58.0705C77.8796 57.9466 77.773 57.8758 77.7019 57.7873Z" fill="black"/>
<path d="M72.0884 42.1557C72.266 42.0495 72.4259 41.9079 72.6035 41.7663C72.5147 41.7132 72.4259 41.66 72.3371 41.6069C72.195 41.7486 72.0529 41.9079 71.9463 42.0849C71.9818 42.1203 72.0351 42.138 72.0884 42.1557Z" fill="black"/>
<path d="M70.8628 43.8906C70.9161 43.8729 70.9516 43.8729 71.0049 43.8552C71.1825 43.7666 71.3779 43.6781 71.5556 43.5896C71.4312 43.5719 71.3424 43.5542 71.2358 43.5188C71.1115 43.6427 70.9871 43.7666 70.8628 43.8906Z" fill="black"/>
<path d="M68.5357 49.2368C68.8555 49.0952 68.8555 48.8119 68.8733 48.5464C68.6423 48.6703 68.4292 48.7942 68.1982 48.9181C68.2515 49.0598 68.3403 49.166 68.5357 49.2368Z" fill="black"/>
<path d="M77.6844 50.9895C77.5423 50.8479 77.4001 50.7062 77.258 50.5646C77.1515 50.5115 77.0093 50.4584 76.8672 50.423C76.7251 50.3876 76.583 50.3345 76.4409 50.2814C76.4409 50.1043 76.4764 49.9627 76.6008 49.8919C76.4409 49.7326 76.281 49.5733 76.1212 49.4316C75.9258 49.4493 75.7481 49.467 75.5527 49.4847C76.3343 50.2283 77.0982 50.9895 77.862 51.7507C77.862 51.7153 77.862 51.6622 77.862 51.6268C77.8087 51.3612 77.7732 51.1488 77.6844 50.9895Z" fill="black"/>
<path d="M69.6551 41.5715C69.5841 41.7662 69.6729 41.9255 69.8328 42.0494C69.8505 42.0671 69.8683 42.0848 69.9038 42.1025C70.0637 41.837 70.2413 41.5715 70.419 41.2882C70.3302 41.2705 70.2413 41.2705 70.1703 41.2705C69.9394 41.2528 69.7262 41.3413 69.6551 41.5715Z" fill="black"/>
<path d="M73.2434 47.2542C73.421 47.4135 73.5809 47.5905 73.7585 47.7499C73.8828 47.6614 74.0072 47.5905 74.1493 47.5197C73.9717 47.3427 73.794 47.1657 73.6164 47.0063C73.492 47.0772 73.3499 47.1657 73.2256 47.2365C73.2256 47.2365 73.2256 47.2365 73.2434 47.2542Z" fill="black"/>
<path d="M72.8704 46.8823C73.0303 46.8469 73.208 46.8115 73.3678 46.7761C73.0836 46.4929 72.7816 46.2273 72.4974 45.9441C72.4086 46.0503 72.3198 46.1388 72.231 46.245C72.4619 46.4752 72.675 46.6876 72.8704 46.8823Z" fill="black"/>
<path d="M71.7687 43.5012C71.9108 43.4303 72.0529 43.3772 72.1773 43.3064C72.0885 43.2533 71.9819 43.1825 71.8931 43.1294C71.7687 43.2002 71.6444 43.2533 71.52 43.3418C71.6088 43.3949 71.6799 43.448 71.7687 43.5012Z" fill="black"/>
<path d="M72.8524 42.4567C73.0123 42.4213 73.1544 42.3151 73.2787 42.2266C73.1899 42.1381 73.0833 42.085 72.9767 42.0319C72.9234 41.9965 72.8702 41.9611 72.8169 41.9434C72.7103 42.0673 72.6215 42.2089 72.5859 42.3859C72.6748 42.3859 72.7636 42.4213 72.8524 42.4567Z" fill="black"/>
<path d="M78.5012 58.2122C78.4835 58.4069 78.4657 58.5839 78.4302 58.7786C78.6789 59.0973 78.9098 59.3982 79.1585 59.7169C79.1762 59.5399 79.2118 59.3451 79.2295 59.1681C78.9808 58.8495 78.7322 58.5308 78.5012 58.2122Z" fill="black"/>
<path d="M68.3407 48.3695C68.1808 48.1924 68.1453 47.98 68.0743 47.7676C67.9854 47.8207 67.8789 47.8738 67.79 47.9269C67.8789 48.157 67.9677 48.3695 68.0565 48.5996C68.5361 48.3695 68.9802 48.0862 69.4243 47.7853C68.9447 47.4843 68.696 47.6614 68.3407 48.3695Z" fill="black"/>
<path d="M66.2446 47.8384C66.1735 47.8738 66.1025 47.9092 66.0137 47.9446C66.0492 47.9623 66.0847 47.98 66.1203 47.9977C66.1913 47.9446 66.2268 47.8915 66.2446 47.8384Z" fill="black"/>
<path d="M67.7367 46.9531C67.6479 47.0062 67.559 47.077 67.4702 47.1302C67.5235 47.2718 67.5946 47.4134 67.6479 47.555C67.7367 47.5019 67.8255 47.4488 67.9321 47.378C67.861 47.2541 67.79 47.0947 67.7367 46.9531Z" fill="black"/>
<path d="M76.8137 66.019C78.1282 66.5501 79.1763 67.506 80.5441 67.8424C79.7447 67.152 79.3362 66.2668 79.1052 65.2932C78.7855 63.9301 78.7855 62.5316 78.9631 61.1507C79.0164 60.6728 79.0875 60.2125 79.1585 59.7345C78.9098 59.4159 78.6789 59.1149 78.4302 58.7963C78.4125 58.991 78.3769 59.2034 78.3414 59.3982C78.0394 61.4163 77.9861 63.4167 78.3947 65.4348C78.4835 65.842 78.6434 66.2314 78.8032 66.674C78.5013 66.7094 78.3414 66.497 78.1282 66.4262C77.542 66.196 77.0979 65.6826 76.4229 65.6826C76.3341 65.6826 76.2808 65.6118 76.2453 65.541C76.0677 65.2047 75.7834 64.9214 75.588 64.4257C76.1387 64.8506 76.494 65.3109 77.0624 65.4879C77.2578 65.2224 77.0802 64.9922 77.0269 64.7444C77.2578 64.7267 77.3644 64.9568 77.5598 64.9214C77.7552 64.5497 77.7552 64.5497 77.4355 63.7884C77.8973 63.4344 77.8973 63.3459 77.4177 62.6909C77.4887 62.3368 77.8085 62.0005 77.5243 61.5933C77.471 61.5225 77.5065 61.434 77.5776 61.3632C78.1282 60.8144 77.9684 60.1948 77.7374 59.5752C77.8618 59.3628 78.146 59.4867 78.3059 59.3097C78.1993 58.9733 77.9151 58.7963 77.6131 58.6901C77.1868 58.5307 76.8315 58.3006 76.565 57.8757C77.0447 57.8934 77.3999 58.3183 77.8795 58.2298C77.9151 58.1767 77.9328 58.1413 77.9328 58.1059C77.9151 58.0882 77.8973 58.0705 77.8795 58.0351C76.6006 56.371 75.2328 54.7778 73.865 53.1668C72.888 53.2553 71.911 53.2022 70.9162 53.1137C69.5662 52.9898 68.2695 52.618 66.9905 52.14C67.7365 51.9453 68.5004 51.9276 69.353 51.8391C69.0155 51.3434 68.4649 51.609 68.1451 51.308C68.9267 51.0602 69.8149 50.9186 70.2412 49.9803C69.6905 49.7325 69.353 50.0511 68.98 50.1927C68.2695 50.476 67.5412 50.6884 66.6885 50.5822C68.0385 50.2813 69.2109 49.7679 70.1702 48.9358C70.0813 48.8473 69.9748 48.7588 69.8859 48.6703C69.5662 48.9536 69.2287 49.2368 68.7846 49.3607C69.0511 48.989 69.3886 48.7411 69.655 48.4402C69.584 48.3694 69.5129 48.2985 69.4241 48.2454C69.2465 48.334 69.0866 48.4225 68.9267 48.5287C68.9089 48.7942 68.9089 49.0775 68.5892 49.2191C68.4116 49.166 68.305 49.0421 68.2517 48.9004C67.9675 49.0598 67.6655 49.2014 67.3635 49.3076C66.422 49.6794 65.4273 49.8564 64.4325 50.1042C64.6635 50.3167 64.9477 50.299 65.3029 50.4052C64.7878 50.476 64.4148 50.4406 63.9174 50.2813C64.4503 51.0071 65.1253 51.1841 65.8181 51.3257C64.6457 51.485 63.7753 50.7592 62.7805 50.2813C62.6739 50.1396 62.9226 49.9272 62.745 49.7679C62.6206 50.0157 62.6739 50.3875 62.2121 50.4052C62.1588 49.8387 62.6739 49.3253 62.3897 48.6526C61.9101 49.3076 62.07 50.1573 61.4838 50.6707C61.4838 49.8033 62.2476 49.0598 61.8746 48.1215C61.6081 48.2808 61.6081 48.5818 61.395 48.865V47.5019C61.0397 47.9091 61.0219 48.3694 60.6134 48.7588C60.7555 48.0861 60.9686 47.555 60.9686 46.9531C60.5778 47.2718 60.6134 47.856 60.1693 48.1215C60.0982 47.6435 60.5068 47.201 60.2048 46.7407C59.9028 46.9 60.0627 47.2541 59.7785 47.4311C59.7607 46.7584 60.3291 46.0503 59.6008 45.5192C59.7252 45.2714 59.8851 45.3599 60.0094 45.3953C60.4535 45.5546 60.8088 45.8556 61.164 46.1565C62.1233 47.024 63.1891 47.6435 64.6635 47.5373C64.2194 47.8914 63.7397 47.7321 63.3845 47.9445C63.5443 48.1215 63.7575 48.1569 63.9707 48.1392C64.6279 48.0684 65.3029 47.9622 65.9069 47.679C65.8891 47.6258 65.8714 47.5727 65.8536 47.5019C65.7648 47.1125 65.676 46.7053 65.5872 46.3158C65.4628 45.7671 65.3207 45.2183 65.0365 44.7226C64.6279 44.0322 64.3437 43.9968 63.793 44.5633C63.5266 44.8288 63.3134 45.1652 63.0825 45.4661C62.9404 45.6785 62.816 46.068 62.5141 45.9264C62.141 45.7494 62.4252 45.413 62.5141 45.1652C62.745 44.5102 63.0292 43.8729 63.0292 43.1471C63.047 42.2796 62.8871 42.1203 62.0167 42.1203C61.7858 42.1203 61.5015 42.2619 61.3417 41.8902C61.5548 41.4476 62.141 41.2352 62.3364 40.7218C62.0344 40.5802 61.5904 40.828 61.466 40.3323C61.8746 40.0314 62.3897 40.0845 62.7983 39.8366C63.2246 39.5534 63.2246 39.0046 63.5799 38.6506C64.3259 39.0931 64.7523 38.686 65.1431 38.1018C65.2674 37.9247 65.374 37.7123 65.6405 37.7123C66.1556 38.2965 66.3688 38.3142 67.026 37.8716C67.1504 37.7831 67.2747 37.6769 67.399 37.5884C67.9319 37.1635 68.3938 36.6856 68.8734 36.2076C69.0155 36.066 69.1221 35.8358 69.4063 35.8181C69.4419 36.066 69.282 36.1722 69.1932 36.3138C68.8912 36.7741 68.607 37.2343 68.4293 37.7477C68.2517 38.2611 68.3938 38.5089 68.9267 38.5974C69.1043 38.6329 69.282 38.6151 69.4596 38.6151C70.1169 38.6329 70.7564 38.4204 71.3958 38.2965C71.6268 38.2434 71.8577 38.1372 72.0709 38.3319C72.0176 38.6506 71.7511 38.686 71.5735 38.7745C71.236 38.9515 70.8629 39.0754 70.5254 39.2701C69.957 39.6065 69.9215 39.9429 70.4188 40.3677C70.5432 40.4739 70.6675 40.5625 70.7919 40.651C71.5202 39.5711 72.284 38.5266 73.19 37.4999C73.1189 37.9956 73.1189 37.9956 72.7459 38.4381C72.5327 38.7037 72.3196 38.9515 72.0176 39.3056C72.6926 39.1108 72.9946 38.5266 73.6696 38.4204C73.1544 39.0046 72.6748 39.5357 72.1952 40.0668C72.888 39.8189 73.2255 39.0754 74.0426 39.0754C73.1011 39.6065 72.3906 40.4031 71.6978 41.1997C71.7689 41.2352 71.8222 41.2883 71.8932 41.3237C72.2485 41.005 72.586 40.6687 73.0301 40.527C73.0834 40.5979 73.1189 40.6864 73.1722 40.7572C72.888 41.0404 72.586 41.2883 72.3018 41.5892C72.3906 41.6423 72.4794 41.6954 72.5682 41.7485C72.8347 41.5361 73.1011 41.3237 73.4564 41.1643C73.2433 41.4476 72.9946 41.66 72.7992 41.8902C72.8525 41.9256 72.9057 41.961 72.959 41.9787C73.0479 42.0318 73.1722 42.0849 73.261 42.1734C73.4209 42.0672 73.5985 41.9787 73.8117 42.0495C73.6696 42.1734 73.5097 42.2796 73.3498 42.3858C73.3676 42.4389 73.3676 42.5098 73.3498 42.5806C73.261 42.5629 73.19 42.5275 73.1011 42.5098C72.6926 42.7222 72.2663 42.8815 71.8399 43.0939C71.9288 43.1471 72.0353 43.2179 72.1242 43.271C72.4439 43.1293 72.7814 43.0054 73.1367 42.9346V43.5719C73.4564 43.3418 73.7229 43.1471 74.1492 43.2356C73.4031 43.9614 72.5505 44.5456 72.0353 45.4484C72.6748 45.1121 73.1011 44.4925 73.8117 44.2446C73.4209 44.8465 72.9413 45.3599 72.4439 45.9087C72.7281 46.1919 73.0301 46.4575 73.3143 46.7407C73.5808 46.6876 73.8295 46.6345 74.1137 46.6168C73.9183 46.7407 73.7229 46.8469 73.5275 46.9531C73.7051 47.1302 73.8827 47.3072 74.0604 47.4665C74.7709 47.0594 75.517 46.7584 76.3519 46.6168C76.796 46.546 77.2933 46.5106 77.5243 45.9441C77.9506 47.8206 78.1282 49.7148 78.2881 51.609C78.5723 51.8922 78.8565 52.1754 79.1408 52.4587C79.123 52.2994 79.1052 52.1577 79.0875 51.9984C78.821 49.7148 78.6789 47.4311 78.1993 45.1652C77.7552 43.1293 77.3289 41.0935 76.6894 39.1108C76.5473 38.6506 76.2986 38.385 75.8012 38.3496C75.5703 38.3319 75.3394 38.2611 75.0907 38.208C75.3216 37.6238 76.0499 37.3228 75.8723 36.597C75.3926 36.4554 75.1795 36.9334 74.7709 36.9688C74.8065 36.7033 74.9841 36.5793 75.1084 36.4377C75.3216 36.2076 75.4459 35.8358 75.3571 35.6234C75.1084 35.0923 75.3216 34.6674 75.517 34.2072C75.6058 34.0124 75.6413 33.8 75.588 33.5522C75.5348 33.2512 75.6413 32.9149 76.0144 32.7378C76.867 32.3307 77.7197 31.9058 78.6256 31.5872C78.8565 31.4986 79.1408 31.4986 79.2296 31.1092C79.0164 30.9676 78.8743 30.7197 78.5546 30.6135C77.9151 30.4188 77.2934 30.1886 76.6539 29.9939C74.9486 29.4805 73.2077 29.3389 71.4491 29.3566C71.1827 29.3566 70.8807 29.4097 70.5965 29.1796C70.8452 29.0203 71.0406 28.914 71.2537 28.8255C72.0176 28.5069 72.8169 28.3299 73.6163 28.0997C73.8117 28.0466 74.0959 28.0466 74.1847 27.604C71.2537 26.949 68.2872 26.6658 65.3029 26.5419C65.3385 25.7807 66.3155 25.5151 66.2977 24.5946C64.1483 25.1611 62.0877 25.6921 59.9739 26.2409C60.0982 25.6567 60.4002 25.2496 60.5956 24.8247C60.8088 24.3821 61.4127 24.2051 61.466 23.5678C59.2456 23.798 57.0962 24.1166 54.9468 24.7716C55.0711 24.0281 55.3376 23.4793 55.6396 22.9128C55.8882 22.4525 55.7817 22.2578 55.2843 22.2755C53.7566 22.3286 52.3178 22.665 51.021 23.5147C50.9322 23.5678 50.8612 23.6209 50.7901 23.6917C50.7191 23.6209 50.648 23.5678 50.5592 23.5147C49.2624 22.6827 47.8058 22.3463 46.2959 22.2755C45.7985 22.2578 45.692 22.4525 45.9407 22.9128C46.2426 23.4616 46.5091 24.0281 46.6334 24.7716C44.484 24.1166 42.3346 23.798 40.1142 23.5678C40.1675 24.2051 40.7715 24.3821 40.9846 24.8247C41.18 25.2673 41.482 25.6567 41.6063 26.2409C39.4925 25.6921 37.4319 25.1611 35.2825 24.5946C35.2648 25.4974 36.2417 25.7807 36.2773 26.5419C33.293 26.6658 30.3265 26.949 27.3955 27.604C27.4843 28.0466 27.7508 28.0289 27.9639 28.0997C28.7633 28.3299 29.5626 28.5069 30.3265 28.8255C30.5396 28.914 30.735 29.0203 30.9837 29.1796C30.6995 29.4097 30.3975 29.3566 30.1311 29.3566C28.3725 29.3389 26.6139 29.4805 24.9264 29.9939C24.2869 30.1886 23.6651 30.4188 23.0257 30.6135C22.7237 30.702 22.5816 30.9676 22.3506 31.1092C22.4395 31.4986 22.7237 31.4986 22.9546 31.5872C23.8428 31.9058 24.6954 32.3307 25.5658 32.7378C25.9389 32.9149 26.0455 33.2512 25.9922 33.5522C25.9566 33.8 25.9922 34.0124 26.0632 34.2072C26.2586 34.6674 26.4718 35.0746 26.2231 35.6234C26.1165 35.8358 26.2586 36.1899 26.4718 36.4377C26.5961 36.5793 26.7738 36.721 26.8093 36.9688C26.4007 36.9334 26.1876 36.4554 25.708 36.597C25.5303 37.3228 26.2409 37.6238 26.4895 38.208C26.2586 38.2611 26.0099 38.3319 25.779 38.3496C25.2816 38.385 25.0329 38.6329 24.8908 39.1108C24.2513 41.0935 23.825 43.1293 23.3809 45.1652C22.8835 47.4134 22.7592 49.7148 22.4927 51.9984C22.475 52.1755 22.4572 52.3702 22.4395 52.5472C22.4395 52.6357 22.4395 52.7065 22.4217 52.7773C22.4395 52.8482 22.475 52.9013 22.475 52.9898C22.475 53.0429 22.4927 53.096 22.4927 53.1491C22.7414 52.9013 22.9901 52.6534 23.2388 52.4056C23.3632 52.2817 23.4875 52.1577 23.6118 52.0515C24.5178 51.1487 25.4237 50.2636 26.3474 49.3784C26.3652 49.3607 26.383 49.343 26.4007 49.3253C27.129 48.6172 27.8396 47.9268 28.5679 47.2187C28.8876 46.9177 29.1896 46.5991 29.4916 46.2981C29.7758 46.0149 30.0423 45.7317 30.3265 45.4484C30.5574 45.2006 30.8061 44.9704 31.0548 44.7403C31.1436 44.6695 31.2147 44.581 31.2857 44.4925C31.4456 44.2977 31.5877 44.0853 31.4456 43.8198C31.3035 43.5365 31.037 43.4834 30.7528 43.4834C30.6995 43.4834 30.664 43.4834 30.6107 43.5011C30.5929 43.5011 30.5929 43.5011 30.5752 43.5011C30.5396 43.5011 30.4864 43.5188 30.4508 43.5365C30.3442 43.5542 30.2377 43.5896 30.1133 43.5896C30.0778 43.5896 30.0423 43.5896 30.0067 43.5896C29.9712 43.5896 29.9357 43.5896 29.8824 43.5719C30.2021 43.3418 30.5219 43.1471 30.8239 42.9523L30.8416 42.9346C30.8949 42.8992 30.966 42.8638 31.0193 42.8107C31.037 42.793 31.0548 42.7753 31.0725 42.7753C31.1258 42.7399 31.1614 42.7045 31.2147 42.6691C31.2324 42.6514 31.2679 42.6337 31.2857 42.616C31.339 42.5806 31.3745 42.5452 31.4101 42.5098C31.4278 42.492 31.4456 42.4743 31.4633 42.4566C31.5166 42.4035 31.5877 42.3504 31.641 42.2973C31.6943 42.2442 31.7476 42.2088 31.7831 42.1557C31.8364 42.1026 31.8719 42.0672 31.9252 42.0141C32.0673 41.8902 32.1561 41.7308 32.1028 41.5361C32.0318 41.306 31.8186 41.2352 31.6232 41.2352C31.4989 41.2352 31.3745 41.2529 31.2502 41.2706C31.1436 41.2883 31.037 41.306 30.9127 41.3237C30.8239 41.3414 30.7173 41.3414 30.6285 41.3591C30.7883 41.2529 30.9482 41.1643 31.1081 41.0404C31.339 40.8811 31.5522 40.7041 31.7476 40.4916C32.2805 39.9252 32.2449 39.5534 31.6055 39.1285C31.4811 39.04 31.339 38.9692 31.2147 38.8453C31.6765 38.9515 32.1384 38.9692 32.6002 38.9515C33.5772 38.9161 33.8792 38.4735 33.5772 37.553C33.5594 37.5176 33.5772 37.4645 33.5772 37.3937C34.0391 37.6769 34.3766 38.0664 34.7674 38.3673C35.2292 38.7214 35.7266 39.0046 36.3306 38.4912C36.8102 39.0046 37.2543 39.5711 37.9648 39.2879C38.6754 39.9783 38.9418 40.8988 39.5813 41.6423C37.9293 41.8902 38.2668 43.0585 38.4444 44.103C38.2135 44.2092 38.1247 44.0145 38.0181 43.9437C37.4319 43.5896 37.0411 43.6781 36.6325 44.2446C36.3483 44.6341 36.1707 45.0589 36.0286 45.5192C35.9575 45.7494 35.9042 45.9972 35.8332 46.245C35.6555 45.9264 35.4424 45.6431 35.0516 45.6431C34.6786 45.6608 34.4299 45.891 34.27 46.2096C34.2167 46.3335 34.1634 46.4575 34.1101 46.5991C34.0568 46.723 34.0035 46.8292 33.968 46.9531C33.9147 47.0948 33.8437 47.2364 33.7904 47.378C33.7548 47.4665 33.7193 47.555 33.6838 47.6435C33.666 47.679 33.6483 47.7144 33.6483 47.7498C33.5772 47.9445 33.5417 48.1569 33.3818 48.3163C33.0088 47.5904 32.7779 47.4134 32.2627 47.7498C32.2094 47.7852 32.1561 47.8206 32.1028 47.856C32.0851 47.856 32.0851 47.8737 32.0673 47.8737C32.014 47.9091 31.9607 47.9622 31.8897 48.0153C31.8897 48.0153 31.8719 48.0153 31.8719 48.033C31.641 48.2277 31.4278 48.4225 31.2147 48.6349C31.0548 48.7942 30.8771 48.9713 30.7173 49.1306C30.6995 49.1483 30.6818 49.166 30.6818 49.166C30.5219 49.343 30.362 49.52 30.2021 49.7148C30.1666 49.7502 30.1488 49.7856 30.1133 49.821C29.6159 50.4229 29.1008 51.0071 28.6034 51.609C28.2837 51.9807 27.9639 52.3525 27.6619 52.7065C27.5731 52.8128 27.4843 52.9013 27.3955 53.0075C26.2053 54.406 25.0152 55.8222 23.8783 57.2738C23.7717 57.3978 23.6829 57.5394 23.5763 57.6633C23.4165 57.8757 23.2566 58.0705 23.0967 58.2829C22.8658 58.5838 22.6171 58.9025 22.3862 59.2034C22.4039 59.3982 22.4217 59.5929 22.4395 59.7876C22.4927 60.2125 22.5638 60.6374 22.6171 61.0622C22.7947 62.4607 22.7947 63.8416 22.475 65.2047C22.2441 66.1783 21.8355 67.0635 21.0361 67.7539C22.4039 67.4175 23.452 66.4616 24.7665 65.9305C24.6777 66.6032 24.5888 67.2582 24.5178 67.9132C24.4467 68.5682 24.3046 69.2232 24.3934 69.9313C24.8731 69.8251 25.0329 69.5241 25.2283 69.2586C25.6724 68.639 26.1343 68.0371 26.6849 67.506C26.8981 67.2936 27.1646 67.1166 27.5198 66.8333C27.2711 67.6299 26.9692 68.2672 26.8093 69.0816C27.5731 68.4797 28.2481 67.984 29.0653 67.7185C29.687 67.5237 29.8113 67.5414 30.1133 68.1256C30.6107 69.0816 30.664 70.0552 30.3442 71.0643C29.989 72.215 28.7988 73.0293 27.5909 72.9585C27.4665 72.9585 27.3422 72.9054 27.2711 73.0647C28.9587 74.056 32.8134 73.3479 35.247 70.0552C35.1582 70.4801 35.1049 70.781 35.0516 71.0997C34.9095 72.0379 34.8917 72.9762 35.2115 73.9144C35.318 74.2508 35.3713 74.6048 35.4424 74.9589C35.8332 75.0651 35.7977 74.7287 35.8687 74.5517C36.1352 73.8436 36.4904 73.1886 36.9878 72.5867C36.9523 73.5604 37.3786 74.4278 37.3253 75.4014C37.272 76.3574 37.0411 77.2602 36.9345 78.2162C38.551 76.8354 39.2083 74.9766 39.6346 72.9762C40.2563 73.4718 40.4162 74.1977 40.7004 74.9589C41.2866 74.6579 41.5886 74.1091 42.0149 73.5073C42.2458 74.7819 42.3346 75.9502 42.2281 77.1363C43.436 76.0564 44.3242 74.7996 44.8926 73.1532C45.2479 74.5694 44.7327 75.7732 44.5729 77.0301C45.7985 75.7201 46.7045 74.2685 47.0953 72.4982C47.2374 73.7197 47.4861 74.8881 47.8236 76.021C48.1966 76.0564 48.1966 75.8263 48.2499 75.6139C48.4986 74.5694 48.7473 73.525 48.996 72.4805C49.0493 72.2504 49.1026 72.0379 49.1914 71.8078C49.2447 72.7106 49.5289 73.5427 49.8486 74.3747C50.044 74.8704 50.2217 75.3837 50.5059 75.844C50.6125 75.9679 50.7191 76.1096 50.8079 76.2335C50.8256 76.2158 50.8434 76.1804 50.8612 76.1627C50.9145 76.0564 50.9855 75.9679 51.0566 75.8794C51.0566 75.8794 51.0566 75.8617 51.0388 75.8617C51.323 75.4014 51.5006 74.8881 51.696 74.3924C52.0158 73.5781 52.3 72.7283 52.3533 71.8255C52.4421 72.0556 52.4954 72.2681 52.5487 72.4982C52.7974 73.5427 53.0461 74.5871 53.2948 75.6316C53.3481 75.8263 53.3481 76.0742 53.7211 76.0387C54.0764 74.9058 54.3073 73.7374 54.4494 72.5159C54.8402 74.2862 55.7461 75.7378 56.9718 77.0478C56.7942 75.7909 56.279 74.6048 56.6521 73.1709C57.2205 74.8173 58.1087 76.0742 59.3166 77.154C59.2278 75.9502 59.2989 74.7996 59.5298 73.525C59.9561 74.1446 60.2581 74.6756 60.8443 74.9766C61.1285 74.2154 61.2884 73.4896 61.9101 72.9939C62.3364 74.9943 62.9937 76.8531 64.6102 78.2339C64.5036 77.2779 64.2549 76.3751 64.2194 75.4191C64.1661 74.4632 64.5924 73.5781 64.5569 72.6044C65.0365 73.2063 65.3918 73.8613 65.676 74.5694C65.747 74.7464 65.7115 75.0828 66.1023 74.9766C66.1734 74.6225 66.2089 74.2685 66.3332 73.9321C66.653 73.0116 66.6352 72.0733 66.4931 71.1174C66.4398 70.8164 66.3865 70.4978 66.2977 70.0729C68.7313 73.3833 72.586 74.0737 74.2735 73.0824C74.2025 72.9231 74.0604 72.9762 73.9538 72.9762C72.7459 73.0293 71.5557 72.215 71.2004 71.082C70.8807 70.0729 70.934 69.0993 71.4314 68.1433C71.7333 67.5768 71.8577 67.5414 72.4794 67.7362C73.2965 68.0017 73.9716 68.5151 74.7354 69.0993C74.5755 68.2849 74.2735 67.6476 74.0249 66.851C74.3801 67.1343 74.6466 67.3113 74.8597 67.5237C75.4104 68.0548 75.89 68.6567 76.3163 69.2763C76.5117 69.5418 76.6716 69.8428 77.1512 69.949C77.2401 69.2409 77.0979 68.5859 77.0269 67.9309C76.9914 67.3467 76.8848 66.7094 76.8137 66.019ZM75.0729 57.681C74.6821 57.6456 74.3446 57.5925 74.0071 57.5748C73.5452 57.5571 73.0834 57.5571 72.6215 57.6633C72.2485 57.7518 71.8577 57.7341 71.5202 57.5217C71.5557 57.5925 71.609 57.6633 71.6623 57.7695C71.4491 57.9111 71.2537 58.0351 71.005 57.8403C69.8149 56.9552 68.376 56.548 67.0793 55.8222C68.2162 56.0169 69.2287 56.7074 70.4011 56.7959C69.8149 56.3533 69.1932 55.9815 68.3583 55.7337C69.0688 55.5036 69.584 55.8576 70.0991 55.9107C70.259 55.8399 69.9748 55.6629 70.2412 55.6098C70.7031 55.5036 71.1649 55.4682 71.6268 55.539C72.6926 55.7337 74.2735 56.7251 75.0729 57.681ZM67.8076 52.9013C69.0688 53.3084 70.2767 53.8395 71.4669 54.4591C71.5557 54.5122 71.6268 54.583 71.7334 54.6538C70.632 55.1141 68.305 55.1495 66.724 54.9902C67.4879 54.7778 68.2339 54.9371 68.9978 54.5476C68.607 54.3706 68.3227 54.2998 67.9852 54.3706C67.6477 54.4414 67.3102 54.4414 66.955 54.4237C67.0615 54.2467 67.2747 54.3706 67.3813 54.2113C66.7951 53.9457 66.1734 54.1405 65.5872 54.0342C65.5339 53.9457 65.6227 53.9634 65.6582 53.928C65.7115 53.8926 65.7648 53.8749 65.747 53.7333C65.5339 53.574 65.2496 53.7333 64.9832 53.6448C65.072 53.3792 65.374 53.4678 65.5339 53.3261C65.4983 53.2376 65.4628 53.1668 65.4273 53.096C65.6937 53.0783 65.9602 53.0429 66.2444 53.0252C65.5872 52.618 64.8944 52.9013 64.2194 52.8836C65.4273 52.3702 66.6352 52.5118 67.8076 52.9013ZM71.9465 38.1903C72.4439 37.1458 73.2433 36.3492 74.0426 35.5526C73.5275 36.5793 72.6571 37.3406 71.9465 38.1903ZM72.9768 36.1368C73.19 35.5703 73.4919 35.0392 73.5097 34.3311C73.8117 34.5612 73.9716 34.6851 74.167 34.8268C73.8827 35.3755 73.4387 35.7473 72.9768 36.1368ZM75.6946 38.686C76.192 39.3764 76.2098 40.1199 76.4585 40.7572C76.7072 41.4299 76.867 42.1203 77.0091 42.8284C77.1512 43.5188 77.3466 44.2092 77.4177 45.0589C76.4762 44.581 75.588 44.8819 74.5933 44.935C74.9841 44.581 75.3926 44.5456 75.7657 44.4748C76.121 44.4039 76.494 44.4039 76.5473 43.9083C76.565 43.8021 76.7604 43.7135 76.8848 43.6073C76.565 43.4657 76.2986 43.3595 76.0321 43.2356C76.6361 42.7576 76.6006 42.3327 75.8723 41.8193C76.0854 41.6954 76.2986 41.6246 76.3519 41.3768C76.121 41.0935 75.8545 41.3414 75.5703 41.3591C76.2275 40.5093 75.89 39.7304 74.7709 39.5711C75.0018 39.1993 75.5525 39.2524 75.6946 38.686ZM61.6792 26.2055C63.0647 25.8869 64.4325 25.4089 65.9247 25.1257C65.5161 25.7276 65.0187 26.1878 65.072 26.949C67.8076 27.0199 70.5077 27.3739 73.3321 27.8165C72.6393 28.0289 72.0709 28.1705 71.538 28.383C70.9873 28.5954 70.5077 28.8963 70.0636 29.3743C70.5432 29.6753 71.005 29.6753 71.4491 29.6753C72.888 29.6753 74.3446 29.6753 75.7302 30.0647C76.6716 30.3303 77.6486 30.5604 78.6256 31.1977C77.0624 31.7642 75.6946 32.4369 74.4334 33.3043C74.3801 32.7732 74.3446 32.7555 76.1387 31.4809C74.1492 32.0828 72.3551 33.1804 70.3656 33.8177C71.1649 33.1804 72.1242 32.8086 72.9946 32.1182C72.5149 31.9943 72.1952 32.1891 71.911 32.3484C70.7031 33.0034 69.5129 33.6761 68.4293 34.5435C68.0741 34.8268 67.6833 35.0569 67.0971 35.2339C68.7846 33.5522 70.6853 32.4192 72.5149 31.1446C70.632 31.9943 68.9978 33.1981 67.399 34.5258C67.5056 34.1364 68.678 32.8441 69.2287 32.4192C69.957 31.8527 70.8985 31.658 71.5912 31.003C70.5254 31.0915 69.7083 31.7642 68.7846 32.1891C69.1754 31.6226 69.957 31.4809 70.3123 30.7905C69.9748 30.7374 69.7794 30.8968 69.5662 31.0384C68.9267 31.4809 68.2695 31.9235 67.63 32.3484C67.2569 32.5962 66.8839 32.8086 66.4398 32.8972C67.7188 31.8527 69.2109 31.1092 70.4899 30.0647C67.8964 31.4101 65.5694 33.145 63.1358 34.7382C64.7523 33.322 66.6174 32.2422 68.1806 30.7728C67.5767 30.9676 67.0082 31.2331 66.4931 31.6049C65.0543 32.6139 63.6687 33.6761 62.3009 34.7914C61.9279 35.0923 61.5548 35.3755 61.0574 35.4641C62.07 34.3842 63.2246 33.4637 64.3437 32.5077C65.4628 31.5518 66.8484 30.9676 67.9852 29.7992C67.3102 29.8523 66.8839 30.1001 66.4576 30.3834C64.6102 31.5872 62.9226 33.0034 61.3061 34.4904C61.1285 34.6674 60.9331 34.8268 60.7199 34.9507C62.0522 33.1804 63.5799 31.6049 65.3918 30.3126C64.6102 30.6843 63.7753 30.9853 63.1003 31.5518C62.0522 32.4192 61.1818 33.4637 60.3291 34.5081C60.2048 34.6674 60.0982 34.8622 59.8851 34.9507C60.0094 34.455 60.5601 33.6584 61.4838 32.7201C62.141 32.0474 62.8338 31.4278 63.4733 30.7551C61.5726 31.9589 60.2403 33.6938 59.0146 35.5349C59.2989 34.6674 59.814 33.977 60.3647 33.2866C61.0574 32.4369 61.8035 31.6226 62.5851 30.8613C62.816 30.6312 63.0825 30.4188 63.0825 30.0116C61.0574 31.7996 59.2989 33.7823 58.1442 36.2607C58.4462 34.9684 59.1212 33.8531 59.8673 32.8086C60.6134 31.7642 61.4838 30.8082 62.141 29.7107C60.9686 30.6312 60.116 31.8527 59.2633 33.0565C58.3929 34.278 57.789 35.6411 57.3449 37.0573C57.2738 36.1899 57.8067 34.8622 59.0502 32.5608C59.8318 31.1092 60.7732 29.7638 61.839 28.5069C61.2528 28.8786 60.6844 29.3035 60.2936 29.8877C58.8192 32.0297 57.5403 34.278 56.883 36.8272C56.8652 36.898 56.812 36.9688 56.7054 37.1458C56.9008 34.4019 58.1798 32.2245 59.5831 30.1001C58.8548 30.6135 58.3574 31.3039 57.8955 32.0474C57.86 31.9235 57.8245 31.835 57.789 31.7288C57.4692 31.9235 57.4692 32.3307 57.1672 32.6139C57.3449 31.6757 58.0376 31.0207 58.1265 30.1355C57.2738 31.2685 56.883 32.6139 56.3501 33.8885C56.6521 32.2245 57.3626 30.702 58.0376 29.1619C57.3093 30.1178 56.7587 31.1977 56.0836 32.1713C56.3323 31.18 56.9185 30.348 57.2383 29.392C56.4212 30.348 55.9948 31.5163 55.4264 32.6139C55.6573 31.6049 55.9238 30.6312 56.2613 29.6399C55.3376 31.0384 54.8224 32.5608 54.7514 34.2426C54.5205 33.8177 54.5382 33.6584 54.7159 32.5608C54.8047 31.9766 55.0001 31.4101 54.9645 30.8082C54.4849 31.4986 54.556 32.3484 54.3251 33.1804C53.7033 32.1359 54.6093 31.2862 54.5915 30.3126C54.1119 30.7551 54.1652 31.3924 53.8987 31.8704C53.6678 31.6403 53.6856 31.6403 53.9875 30.7197C54.1119 30.348 54.3428 29.9762 54.2718 29.5513C53.6323 30.4188 53.6678 31.6049 52.8862 32.5608C52.8684 31.8527 53.2592 31.3393 53.206 30.7374C52.7263 31.4809 52.7263 32.4015 52.3355 33.1804C52.2645 32.5431 52.4421 31.9058 52.3888 31.2331C51.998 31.4455 52.1579 31.7642 52.0336 32.012C51.7316 31.1977 52.3711 28.4538 53.0283 27.8165C53.3125 28.0997 53.0994 28.6308 53.5435 28.8432C55.1244 27.6394 56.581 26.1878 58.5705 25.5505C58.233 26.1347 58.0199 26.772 57.6291 27.3739C58.9969 27.073 60.2936 26.5242 61.6792 26.2055ZM40.807 24.152C41.1267 24.0812 41.4109 24.1343 41.6774 24.1874C41.855 24.1874 42.0149 24.2228 42.1748 24.2759C43.7024 24.5415 45.2123 24.807 46.669 25.3204C47.0775 25.462 47.2552 25.3027 47.1663 24.8424C47.042 24.1343 46.7578 23.4793 46.438 22.7712C47.9835 22.842 49.4045 23.1784 50.7013 23.9396C50.7191 23.9396 50.7546 23.9573 50.7723 23.9573C50.7901 23.975 50.8079 23.975 50.8256 23.9927C50.8434 23.975 50.8612 23.975 50.8789 23.9573C50.8967 23.9396 50.9322 23.9396 50.95 23.9219C52.2467 23.1607 53.65 22.8243 55.2132 22.7535C54.8935 23.4616 54.6093 24.1166 54.4849 24.8247C54.3961 25.2673 54.5737 25.4443 54.9823 25.3027C56.3146 24.8424 57.6824 24.5769 59.0502 24.329C59.3521 24.2228 59.6719 24.1874 59.9916 24.1697C60.2581 24.1166 60.5245 24.0635 60.8443 24.1343C60.2048 25.1965 59.1567 25.8692 58.4107 26.7897C58.6771 26.0639 59.1923 25.5328 59.7252 25.0194C59.8495 24.8955 59.9916 24.807 60.0982 24.6654C59.8495 24.6831 59.6008 24.6831 59.3521 24.7539C59.21 24.8424 59.0324 24.8955 58.837 24.9309C58.4817 24.984 58.1442 25.1434 57.8245 25.285C57.3804 25.4974 56.9363 25.7276 56.4034 25.9931C56.7054 25.5505 57.2205 25.4443 57.4337 25.0371C57.2916 24.9309 57.2028 25.0017 57.1139 25.0548C56.0481 25.763 55.1422 26.6835 54.2895 27.7457C54.5205 26.7012 55.4086 26.1524 55.7639 25.3027C54.8047 25.9046 54.2185 26.7897 53.7921 27.8342C53.6145 27.2146 54.3961 26.7366 53.9698 26.1524C53.7211 26.0462 53.6323 26.3471 53.4369 26.3117C53.3658 26.1878 53.5435 26.0639 53.4191 25.94C53.0461 26.2586 52.7796 26.6481 52.6198 27.1084C52.4421 27.5863 52.2822 28.0643 52.1046 28.5423C51.9447 28.9495 51.927 29.4097 51.6605 29.7992C51.625 28.0997 52.3711 26.5596 52.673 24.9309C52.1401 25.5682 51.7671 26.294 51.5007 27.0553C51.5007 27.0376 51.5007 27.0199 51.5007 27.0021C51.4651 26.7189 51.4651 26.4357 51.4296 26.1701C51.4651 25.8338 51.4829 25.4974 51.4296 25.1434C51.3763 25.2319 51.3408 25.3027 51.3052 25.3912C51.252 25.1611 51.1454 24.9309 51.021 24.7185C50.9322 24.8601 50.8789 24.984 50.8256 25.0903C50.7723 24.984 50.7191 24.8778 50.6302 24.7185C50.4881 24.9309 50.3993 25.1611 50.346 25.3912C50.3105 25.3027 50.2572 25.2319 50.2217 25.1434C50.1684 25.4974 50.1861 25.8515 50.2217 26.1701C50.2039 26.4534 50.1861 26.7366 50.1506 27.0021C50.1506 27.0199 50.1506 27.0376 50.1506 27.0553C49.8842 26.3117 49.5289 25.6036 48.996 24.9663C49.298 26.595 50.044 28.1351 50.0085 29.8346C49.7421 29.4628 49.7243 29.0026 49.5644 28.5777C49.3868 28.0997 49.2269 27.6217 49.0493 27.1438C48.8716 26.6835 48.623 26.294 48.2499 25.9754C48.1256 26.0993 48.3032 26.2232 48.2322 26.3471C48.0368 26.3826 47.9479 26.0816 47.6992 26.1878C47.2729 26.7543 48.0545 27.2323 47.8769 27.8696C47.4506 26.8251 46.8644 25.94 45.9051 25.3381C46.2604 26.2055 47.1486 26.7366 47.3795 27.7811C46.5091 26.7189 45.6209 25.7984 44.5551 25.0903C44.4663 25.0371 44.3775 24.9663 44.2353 25.0725C44.4485 25.4797 44.9637 25.5859 45.2656 26.0285C44.7327 25.763 44.2886 25.5328 43.8446 25.3204C43.5248 25.1611 43.1873 25.0017 42.832 24.9663C42.7254 24.9486 42.6189 24.9309 42.5123 24.8955C42.4412 24.8955 42.3702 24.8778 42.2991 24.8778C42.1393 24.8601 41.9794 24.8424 41.8373 24.807C41.7485 24.7893 41.6774 24.7539 41.5886 24.7362C41.6952 24.8601 41.8373 24.9663 41.9439 25.0725C42.4768 25.5859 42.9919 26.117 43.2584 26.8428C42.4945 25.8869 41.4465 25.2142 40.807 24.152ZM24.6421 42.8107C24.7842 42.1026 24.9441 41.4122 25.1928 40.7395C25.4415 40.1022 25.4593 39.3764 25.9566 38.6683C26.0987 39.2347 26.6494 39.1816 26.8626 39.5534C25.7612 39.7127 25.406 40.4739 26.0632 41.3414C25.7968 41.3237 25.5303 41.0758 25.2816 41.3591C25.3349 41.6069 25.5481 41.6777 25.7612 41.8016C25.0329 42.2973 24.9974 42.7399 25.6014 43.2179C25.3349 43.3418 25.0685 43.448 24.7487 43.5896C24.8731 43.6958 25.0685 43.7844 25.0862 43.8906C25.1395 44.3862 25.5126 44.3862 25.8678 44.4571C26.2409 44.5456 26.6494 44.5633 27.0402 44.9173C26.0455 44.8819 25.1395 44.5633 24.2158 45.0412C24.3046 44.1915 24.5 43.5011 24.6421 42.8107ZM27.3955 47.7498C26.4895 47.4665 25.5481 47.3957 24.5888 47.4311C24.4112 47.4311 24.2158 47.4311 24.1803 47.6258C24.127 47.8914 24.3579 47.8914 24.5356 47.9622C24.731 48.0507 25.0329 47.9445 25.1218 48.2631C24.9264 48.2631 24.731 48.2454 24.5533 48.2631C24.3934 48.2808 24.2513 48.334 24.2691 48.5287C24.2691 48.6703 24.3402 48.7765 24.4823 48.7942C24.9619 48.8473 25.406 49.1129 25.8678 49.2545C25.8145 49.3076 25.7612 49.3607 25.708 49.4138C25.477 49.3961 25.2283 49.3607 24.9974 49.3253C24.802 49.3076 24.5178 49.2368 24.5 49.5377C24.4645 49.8033 24.6954 49.821 24.9086 49.8033C25.0507 49.8033 25.1395 49.8387 25.2106 49.9095C25.0329 50.0865 24.8553 50.2636 24.6777 50.4229C24.2869 50.5468 24.0559 50.7946 23.9494 51.1487C23.7362 51.3611 23.5408 51.5559 23.3276 51.7683C23.4875 49.821 23.6474 47.8737 24.0915 45.9618C24.3224 46.5106 24.8198 46.546 25.2639 46.6345C26.1165 46.7761 26.9159 47.0948 27.6442 47.5196C27.5198 47.6258 27.4488 47.6967 27.3955 47.7498ZM28.1238 47.0417C27.9106 46.9177 27.6797 46.7938 27.4665 46.6522C27.7863 46.6699 28.0883 46.7407 28.3725 46.7938C28.2837 46.8823 28.2126 46.9708 28.1238 47.0417ZM30.6107 43.8552C30.6817 43.8906 30.7528 43.926 30.8416 43.9614C30.8239 43.926 30.7883 43.9083 30.7706 43.8729C30.8771 43.8906 30.9837 43.9083 31.0903 43.9614C31.037 44.2269 30.8949 44.4216 30.735 44.5633C30.2199 45.0412 29.7048 45.5369 29.1896 46.0149C28.6922 45.4484 28.1593 44.9173 27.7685 44.2977C28.4791 44.5456 28.9054 45.1652 29.5449 45.5015C29.0297 44.5987 28.1771 44.0145 27.431 43.2887C27.8573 43.2002 28.1238 43.3949 28.4435 43.625V42.9877C28.8343 43.0585 29.1896 43.2002 29.5449 43.3595C29.4205 43.4303 29.314 43.5011 29.1896 43.5719C28.9942 43.6781 28.71 43.7489 28.781 44.1207C29.4028 44.2092 29.989 43.8375 30.6107 43.8552ZM27.4843 34.8091C27.6619 34.6674 27.8218 34.5435 28.1416 34.3134C28.1771 35.0215 28.4613 35.5526 28.6745 36.1191C28.2126 35.7473 27.7685 35.3755 27.4843 34.8091ZM29.7048 38.1903C28.9942 37.3228 28.1238 36.5793 27.6087 35.5526C28.408 36.3669 29.2074 37.1635 29.7048 38.1903ZM29.1186 41.8193C29.0297 41.8725 28.9587 41.9256 28.8699 41.961C28.6745 41.7131 28.408 41.5007 28.1771 41.182C28.5501 41.3591 28.8343 41.6069 29.1186 41.8193ZM28.4613 40.7926C28.5146 40.7218 28.5501 40.6333 28.6034 40.5625C29.083 40.7218 29.4205 41.0758 29.7936 41.4122C29.6515 41.5007 29.5094 41.5715 29.3672 41.66C29.1008 41.3591 28.7633 41.0935 28.4613 40.7926ZM28.4435 42.2796C28.408 42.3327 28.3725 42.4035 28.3725 42.492C28.1771 42.3858 27.9817 42.2442 27.8041 42.0849C28.0705 42.0141 28.2481 42.138 28.4435 42.2796ZM31.4989 41.66C31.5166 41.6954 31.5522 41.7308 31.5699 41.7662C31.4989 41.961 31.3568 42.0318 31.2502 42.138C30.8061 42.5275 30.3265 42.8638 29.8291 43.1825C29.4028 42.97 28.9587 42.793 28.5501 42.5806C28.6745 42.5452 28.781 42.5098 28.8876 42.4743C28.9587 42.4743 29.012 42.4743 29.083 42.4566C29.083 42.4389 29.0653 42.4212 29.0653 42.4035C29.2429 42.3327 29.4383 42.2619 29.6159 42.1911C29.687 42.2265 29.758 42.2619 29.8469 42.2973C29.8113 42.2442 29.7758 42.1911 29.758 42.138C29.989 42.0495 30.2021 41.961 30.4331 41.8902C30.4864 41.9256 30.5396 41.9433 30.5929 41.9787C30.5574 41.9433 30.5219 41.9079 30.5041 41.8725C30.8239 41.7839 31.1436 41.6954 31.4989 41.66ZM30.5929 40.9342C30.3975 41.0581 30.1844 41.182 29.989 41.2883C29.2784 40.4739 28.5679 39.6596 27.6087 39.1108C28.4258 39.1108 28.7633 39.8543 29.4561 40.1022C28.9764 39.5711 28.5146 39.04 27.9817 38.4558C28.6567 38.562 28.9587 39.1639 29.6337 39.341C29.3317 38.9869 29.1186 38.7214 28.9054 38.4735C28.5324 38.0133 28.5324 38.0133 28.4613 37.5353C29.385 38.562 30.1666 39.6419 30.9127 40.7395C30.8061 40.8103 30.6995 40.8811 30.5929 40.9342ZM33.2219 34.5612C32.1561 33.6938 30.9482 33.0211 29.7403 32.3661C29.4561 32.2068 29.1363 32.0297 28.6567 32.1359C29.5271 32.8264 30.5041 33.1981 31.2857 33.8354C29.2962 33.2158 27.5021 32.1182 25.5126 31.4986C27.3067 32.7732 27.2711 32.7909 27.2179 33.322C25.9389 32.4546 24.5888 31.7642 23.0257 31.2154C24.0204 30.5781 24.9796 30.348 25.9211 30.0824C27.3244 29.693 28.7633 29.693 30.2021 29.693C30.664 29.693 31.1258 29.693 31.5877 29.392C31.1614 28.914 30.664 28.5954 30.1133 28.4007C29.5804 28.1882 29.012 28.0466 28.3192 27.8342C31.1436 27.3916 33.8259 27.0376 36.5793 26.9667C36.6325 26.2055 36.1352 25.7276 35.7266 25.1434C37.2187 25.4266 38.5688 25.9046 39.9721 26.2232C41.3577 26.5419 42.6544 27.1084 44.0222 27.4447C43.6314 26.8428 43.436 26.2055 43.0807 25.6213C45.0702 26.2586 46.5269 27.7103 48.1078 28.914C48.5519 28.7016 48.321 28.1705 48.623 27.8873C49.2802 28.5246 49.9375 31.2685 49.6177 32.0828C49.4934 31.8527 49.6532 31.5163 49.2624 31.3039C49.2091 31.9766 49.4045 32.6139 49.3157 33.2512C48.9249 32.4546 48.9249 31.5518 48.4453 30.8082C48.3743 31.4101 48.7828 31.9058 48.7651 32.6316C48.0012 31.6757 48.0368 30.5073 47.3795 29.6222C47.3084 30.0647 47.5394 30.4188 47.6637 30.7905C47.9657 31.7111 47.9835 31.6934 47.7525 31.9412C47.4861 31.4455 47.5394 30.8259 47.0598 30.3834C47.042 31.357 47.9479 32.2068 47.3262 33.2512C47.0953 32.4192 47.1486 31.5695 46.6867 30.8791C46.669 31.4809 46.8466 32.0474 46.9354 32.6316C47.113 33.7292 47.1308 33.8885 46.8999 34.3134C46.8288 32.6139 46.3137 31.1092 45.39 29.7107C45.7097 30.6843 45.9939 31.6757 46.2249 32.6847C45.6564 31.5872 45.2479 30.4188 44.413 29.4628C44.7327 30.4188 45.3189 31.2685 45.5676 32.2422C44.8926 31.2508 44.3419 30.1886 43.6136 29.2327C44.2709 30.7728 44.9992 32.2953 45.3012 33.9593C44.7683 32.6847 44.3775 31.3393 43.5248 30.2063C43.6136 31.0915 44.3242 31.7465 44.484 32.6847C44.1821 32.4015 44.1821 32.012 43.8623 31.7996C43.8268 31.9058 43.7913 31.9943 43.7557 32.1182C43.2939 31.357 42.7787 30.6843 42.0682 30.1709C43.4715 32.2953 44.7505 34.4727 44.9459 37.2166C44.8393 37.0396 44.786 36.9688 44.7683 36.898C44.111 34.278 42.832 32.0297 41.3577 29.8877C40.9669 29.3035 40.3984 28.8786 39.8122 28.5069C40.878 29.7815 41.8195 31.1092 42.6011 32.5608C43.8446 34.8622 44.3775 36.1899 44.3064 37.0573C43.8623 35.6234 43.2584 34.2603 42.3879 33.0565C41.5353 31.8527 40.6826 30.6312 39.5102 29.7107C40.1675 30.8259 41.0379 31.7642 41.784 32.8086C42.5478 33.8708 43.2051 34.9684 43.507 36.2607C42.3524 33.7823 40.5938 31.7996 38.5688 30.0116C38.551 30.4011 38.8352 30.6312 39.0662 30.8613C39.8478 31.6403 40.5938 32.4369 41.2866 33.2866C41.8373 33.9593 42.3524 34.6674 42.6366 35.5349C41.4109 33.6938 40.0787 31.9589 38.178 30.7551C38.8175 31.4278 39.528 32.0651 40.1675 32.7201C41.0912 33.6761 41.6419 34.4727 41.7662 34.9507C41.5531 34.8622 41.4465 34.6674 41.3221 34.5081C40.4695 33.4637 39.5991 32.4192 38.551 31.5518C37.876 30.9853 37.0589 30.6843 36.2595 30.3126C38.0892 31.6049 39.5991 33.1804 40.9313 34.9507C40.7182 34.8268 40.5228 34.6497 40.3451 34.4904C38.7286 32.9857 37.0589 31.5695 35.1937 30.3834C34.7674 30.1178 34.341 29.8523 33.666 29.7992C34.8029 30.9499 36.1885 31.5518 37.3076 32.5077C38.4267 33.4637 39.5813 34.3842 40.5938 35.4641C40.0964 35.3755 39.7234 35.0923 39.3504 34.7914C37.9826 33.6761 36.597 32.6139 35.1582 31.6049C34.643 31.2331 34.0746 30.9676 33.4706 30.7728C35.0338 32.2422 36.899 33.3397 38.5155 34.7382C36.0819 33.145 33.7548 31.4101 31.1614 30.0647C32.4226 31.1269 33.9325 31.8527 35.2115 32.8972C34.7674 32.7909 34.3943 32.5962 34.0213 32.3484C33.3818 31.9058 32.7246 31.4809 32.0851 31.0384C31.8719 30.8968 31.6943 30.7374 31.339 30.7905C31.6943 31.4809 32.4581 31.6226 32.8667 32.1891C31.943 31.7642 31.1258 31.0915 30.06 31.003C30.7528 31.658 31.6943 31.8704 32.4226 32.4192C32.9732 32.8441 34.1279 34.1364 34.2522 34.5258C32.6535 33.2158 31.0193 31.9943 29.1186 31.1623C30.9482 32.4369 32.8667 33.5876 34.5364 35.2516C33.968 35.0923 33.5772 34.8622 33.2219 34.5612ZM37.5385 37.4999C36.8102 37.0219 36.1529 36.4554 35.5845 35.7827C35.3003 35.4464 35.0161 35.11 34.945 34.6497C34.8917 34.2603 34.4299 34.0655 34.2878 33.623C34.6608 33.6761 34.9272 33.8531 35.2115 33.977C36.224 34.4019 37.2187 34.8445 38.2313 35.287C38.9418 35.6057 39.5458 36.0483 40.0964 36.6855C40.132 36.3846 39.8478 36.2076 39.9899 35.9066C41.1623 36.2784 42.2281 36.8803 43.2761 37.6061C43.2939 37.1104 43.2939 37.1104 42.832 36.3138C43.2584 36.4731 43.4182 36.8626 43.7557 37.0573C44.1288 37.2697 44.413 37.6061 44.6617 37.9424C44.8926 38.2611 45.1058 38.5797 45.4255 39.0223C45.5321 37.7831 45.5676 36.6678 45.763 35.588C46.0295 35.6057 46.1361 35.765 46.2249 35.9774C46.2959 36.1368 46.3847 36.2961 46.5801 36.2784C46.8288 36.2784 46.8644 36.066 46.9354 35.8889C47.2552 34.9507 47.5749 34.0124 47.8946 33.0742C47.9479 32.8972 48.019 32.7378 48.09 32.5254C48.4808 32.8264 48.7118 33.2158 48.996 33.5345C49.4223 33.9947 49.5644 33.977 49.8131 33.3751C50.1506 32.5785 50.4526 31.7819 50.8079 31.003C51.1454 31.7819 51.4651 32.5962 51.8026 33.3751C52.0513 33.977 52.1934 33.9947 52.6198 33.5345C52.9217 33.2158 53.1527 32.8264 53.5257 32.5254C53.5967 32.7378 53.6678 32.8972 53.7211 33.0742C54.0408 34.0124 54.3606 34.9507 54.6803 35.8889C54.7336 36.066 54.7869 36.2784 55.0356 36.2784C55.2488 36.2784 55.3198 36.1368 55.3909 35.9774C55.4797 35.7827 55.5863 35.6057 55.8527 35.588C56.0481 36.6678 56.0836 37.7654 56.1902 39.0223C56.4922 38.5797 56.7231 38.2434 56.9541 37.9424C57.2028 37.6061 57.487 37.2697 57.86 37.0573C58.1975 36.8626 58.3574 36.4908 58.7837 36.3138C58.3396 37.1104 58.3396 37.1104 58.3396 37.6061C59.3877 36.898 60.4535 36.2961 61.6259 35.9066C61.7502 36.1899 61.466 36.3669 61.5193 36.6855C62.07 36.0483 62.6739 35.588 63.3845 35.287C64.3792 34.8445 65.3918 34.4019 66.4043 33.977C66.6885 33.8531 66.955 33.6938 67.328 33.623C67.1859 34.0655 66.724 34.2603 66.6707 34.6497C66.5997 35.1277 66.3332 35.4464 66.0312 35.7827C65.4628 36.4554 64.8056 37.0219 64.0773 37.4999C61.5193 39.1462 60.0805 41.5361 59.2811 44.4039C58.8015 46.1565 58.2863 47.8737 57.5403 49.5377C57.3804 49.8741 57.185 50.1573 56.9008 50.4229C57.3271 49.5554 57.7001 48.6703 58.0021 47.7675C58.3041 46.8469 58.6949 45.9441 58.6061 44.935C58.0554 46.1034 57.9311 47.4311 57.2916 48.5641C57.789 45.9264 58.2153 43.2887 58.9969 40.7218C58.5173 41.5892 58.0909 42.492 57.7001 43.3772C57.3093 44.2623 57.0784 45.2006 56.812 46.1211C56.9363 43.6604 57.7534 41.4122 58.8548 39.2524C57.7001 41.1112 56.7409 43.0585 56.4212 45.2537C56.4212 43.625 56.9896 42.138 57.3626 40.5802C56.9363 41.1112 56.6698 41.7485 56.4212 42.3681C56.4567 41.6954 56.7587 41.0758 56.9008 40.4031C56.581 40.5093 56.6698 40.8457 56.4567 40.9696C56.3679 40.7749 56.581 40.5447 56.4389 40.3677C56.2435 40.3677 56.3146 40.6687 56.1369 40.6333C55.8705 40.4916 56.0126 40.173 55.7994 40.0314C55.5863 40.1907 55.7994 40.527 55.5152 40.6864C55.4442 40.3323 55.5863 40.0137 55.5863 39.7127C55.5863 39.4295 55.5863 39.1462 55.5863 38.863C55.4086 39.2702 55.4619 39.695 55.2488 40.2261C55.1777 39.6242 55.1955 39.1816 55.231 38.7214C55.2843 38.2611 55.4797 37.8008 55.1955 37.376C54.8935 37.376 55.0001 37.73 54.7869 37.7477C54.6803 37.5884 54.5915 37.4114 54.3606 37.5176C54.2362 37.3051 54.4494 36.9865 54.0408 36.8449C53.7566 37.3228 54.0408 37.9247 53.7033 38.4381C53.6678 37.7123 54.0231 37.0573 53.7389 36.42C53.4902 36.4023 53.4902 36.6501 53.3303 36.7564C53.2948 36.3492 53.4191 36.0128 53.1882 35.5703C52.904 36.5262 53.0461 37.4645 52.7619 38.3142C52.4776 37.3937 53.0638 36.4377 52.6375 35.4995C52.3533 35.7827 52.4244 36.1191 52.3533 36.4554C52.2822 36.066 52.4066 35.6411 52.0336 35.3755C51.9092 35.3755 51.927 35.5703 51.7493 35.5172C51.6428 35.411 51.7493 35.1631 51.4474 35.0215C51.3585 36.1545 51.5006 37.2343 51.4296 38.3319C51.323 38.2434 51.2697 38.1372 51.2342 38.031C51.3585 36.7741 51.3052 35.5172 51.252 34.2603C51.1631 34.3665 51.1099 34.455 51.0743 34.5612C51.0566 34.3311 51.0033 34.1009 50.7901 33.8885C50.5769 34.1009 50.5237 34.3311 50.5059 34.5612C50.4704 34.455 50.4171 34.3488 50.3283 34.2603C50.275 35.5172 50.2217 36.7741 50.346 38.031C50.3105 38.1372 50.2572 38.2434 50.1506 38.3319C50.0796 37.2343 50.2217 36.1545 50.1329 35.0215C49.8309 35.1454 49.9375 35.411 49.8309 35.5172C49.6532 35.5526 49.671 35.3578 49.5467 35.3755C49.1736 35.6411 49.298 36.0483 49.2269 36.4554C49.1559 36.1191 49.2269 35.7827 48.9427 35.4995C48.5164 36.4377 49.1026 37.3937 48.8184 38.3142C48.5341 37.4645 48.6762 36.5262 48.392 35.5703C48.1789 35.9951 48.3032 36.3492 48.2499 36.7564C48.09 36.6501 48.09 36.4023 47.8414 36.42C47.5571 37.0573 47.8946 37.7123 47.8769 38.4381C47.5394 37.907 47.8236 37.3051 47.5394 36.8449C47.1308 36.9865 47.344 37.3051 47.2196 37.5176C46.9887 37.4114 46.8999 37.5707 46.7933 37.7477C46.5624 37.7123 46.6867 37.376 46.3847 37.376C46.1005 37.8008 46.2959 38.2611 46.3492 38.7214C46.4025 39.1639 46.4025 39.6242 46.3315 40.2261C46.1183 39.695 46.1893 39.2524 45.9939 38.863C45.9939 39.1462 45.9939 39.4295 45.9939 39.7127C45.9939 40.0314 46.1361 40.3323 46.065 40.6864C45.7808 40.527 46.0117 40.1907 45.7808 40.0314C45.5676 40.1553 45.7097 40.4916 45.4433 40.6333C45.2656 40.6687 45.3367 40.3854 45.1413 40.3677C44.9992 40.5625 45.2123 40.7749 45.1235 40.9696C44.8926 40.8457 44.9814 40.5093 44.6794 40.4031C44.8215 41.0935 45.1235 41.6954 45.1591 42.3681C44.9104 41.7485 44.6439 41.1112 44.2176 40.5802C44.5906 42.1203 45.1591 43.625 45.1591 45.2537C44.8393 43.0585 43.8623 41.1289 42.7254 39.2524C43.8268 41.4122 44.6439 43.6604 44.7683 46.1211C44.484 45.2006 44.2709 44.2623 43.8801 43.3772C43.4893 42.4743 43.063 41.5892 42.5833 40.7218C43.3649 43.2887 43.7735 45.9441 44.2886 48.5641C43.6492 47.4311 43.5248 46.1034 42.9741 44.935C42.8853 45.9441 43.2761 46.8469 43.5781 47.7675C43.8801 48.6703 44.2531 49.5554 44.6794 50.4229C44.3952 50.175 44.1998 49.8918 44.04 49.5377C43.2939 47.8914 42.7787 46.1565 42.2991 44.4039C41.5353 41.5361 40.0964 39.1285 37.5385 37.4999ZM34.4299 46.8469C34.7318 47.0948 35.0694 47.3072 35.4246 47.5196C35.4424 47.6435 35.4779 47.7675 35.549 47.8914C35.1226 47.679 34.6963 47.4311 34.2878 47.1833C34.341 47.0594 34.3943 46.9531 34.4299 46.8469ZM33.7016 48.6526C33.7016 48.6349 33.7193 48.6349 33.7193 48.6172C34.2878 48.9004 34.874 49.1483 35.4602 49.3607C35.8332 49.5023 36.224 49.6086 36.6148 49.6971C36.8635 49.7502 37.1655 49.8387 37.3786 49.5377C37.1832 49.1837 36.8279 49.0775 36.4904 48.989C35.6023 48.7411 34.7851 48.3694 33.9858 47.9445C34.0391 47.8206 34.0924 47.6967 34.1279 47.5904C35.4246 48.3517 36.8457 48.9181 37.3786 48.7057C37.3431 48.5641 37.2898 48.511 37.201 48.4933C36.6681 48.3694 36.1885 48.1923 35.7088 47.9622C35.7977 47.9091 35.8509 47.8383 35.8865 47.7675C36.4549 48.0153 37.0944 48.1038 37.7161 48.1746C37.9293 48.1923 38.1424 48.1569 38.3023 47.9799C37.947 47.7675 37.4674 47.9268 37.0233 47.5727C38.4977 47.679 39.5635 47.0594 40.5228 46.1919C40.8603 45.8733 41.2333 45.59 41.6774 45.4307C41.8017 45.3776 41.9616 45.3068 42.086 45.5546C41.3754 46.0857 41.9439 46.7938 41.9083 47.4665C41.6419 47.2895 41.784 46.9354 41.482 46.7761C41.18 47.2541 41.5708 47.6967 41.5175 48.1569C41.0734 47.8914 41.109 47.3072 40.7182 46.9885C40.7182 47.5904 40.9313 48.1215 41.0734 48.7942C40.6649 48.4048 40.6471 47.9445 40.2918 47.5373V48.9004C40.0787 48.6172 40.0787 48.3163 39.8122 48.1569C39.457 49.1129 40.2208 49.8387 40.203 50.7061C39.6168 50.1927 39.7767 49.3253 39.2971 48.688C39.0129 49.3607 39.5458 49.8741 39.4747 50.4406C39.0306 50.4229 39.0839 50.0334 38.9418 49.8033C38.7642 49.9626 38.9951 50.175 38.9063 50.3167C37.9293 50.7946 37.0411 51.5027 35.8687 51.3611C36.5615 51.2195 37.2365 51.0425 37.7694 50.3167C37.2898 50.476 36.899 50.5114 36.3839 50.4406C36.7391 50.3344 37.0411 50.3521 37.2543 50.1396C36.2595 49.8918 35.2648 49.7148 34.3233 49.343C34.0568 49.2368 33.7904 49.1129 33.5417 48.989C33.6127 48.865 33.6483 48.7588 33.7016 48.6526ZM36.224 53.0606C36.1885 53.1491 36.1529 53.2199 36.1174 53.2907C36.2773 53.4323 36.5793 53.3438 36.6681 53.6094C36.4194 53.6979 36.1174 53.5386 35.9042 53.6979C35.8687 53.8218 35.9398 53.8572 35.9931 53.8926C36.0286 53.9103 36.1174 53.8926 36.0641 53.9988C35.4779 54.105 34.8562 53.9103 34.27 54.1759C34.3766 54.3352 34.5897 54.2113 34.6963 54.3883C34.3233 54.406 33.9858 54.406 33.666 54.3352C33.3285 54.2644 33.0443 54.3352 32.6535 54.5122C33.4173 54.9017 34.1634 54.7423 34.9272 54.9548C33.3463 55.1141 31.0193 55.0787 29.9179 54.6184C30.0067 54.5476 30.0956 54.4768 30.1844 54.4237C31.3568 53.8041 32.5825 53.273 33.8437 52.8659C35.0161 52.4764 36.224 52.3348 37.4319 52.8127C36.7569 52.8127 36.0641 52.5472 35.4069 52.9544C35.6911 53.0075 35.9575 53.0429 36.224 53.0606ZM32.8311 48.1392C32.9022 48.2808 32.92 48.4579 32.92 48.6172C32.7246 48.511 32.5469 48.4048 32.3515 48.2985C32.4936 48.1923 32.6357 48.1215 32.8311 48.1392ZM32.1028 48.5287C32.1206 48.511 32.1028 48.511 32.1028 48.5287C32.3693 48.7765 32.6713 49.0244 32.92 49.3607C32.4936 49.2368 32.1739 48.989 31.8719 48.7234C31.9607 48.6526 32.0318 48.5818 32.1028 48.5287ZM28.2304 52.8305C28.6389 52.8659 29.0297 52.8482 29.4205 52.7773C29.1008 52.7065 28.781 52.618 28.4791 52.5472C28.5501 52.4764 28.6212 52.3879 28.6745 52.3171C29.5094 52.1932 30.3798 52.3525 31.2324 52.2109C30.5752 51.9099 29.8469 51.8745 29.1541 51.7683C29.2784 51.6267 29.4028 51.485 29.5271 51.3434C29.8291 51.4496 30.1311 51.6621 30.5396 51.5736C30.291 51.3434 30.0423 51.1841 29.7758 51.0425C29.9357 50.8654 30.0778 50.6884 30.2377 50.4937C30.4508 50.5645 30.664 50.653 30.8771 50.7415C30.7883 50.4583 30.5219 50.4406 30.4686 50.299C30.4686 50.2813 30.4508 50.2636 30.4508 50.2459C30.5041 50.175 30.5752 50.1042 30.6285 50.0334C30.9482 49.6617 31.2857 49.2899 31.641 48.9535C32.5825 49.7502 33.7371 50.2281 35.0516 50.5291C34.1989 50.6353 33.4706 50.4406 32.7601 50.1396C32.3871 49.998 32.0318 49.6794 31.4989 49.9272C31.9252 50.8477 32.8134 51.0071 33.595 51.2549C33.2752 51.5559 32.7246 51.2903 32.3871 51.786C33.2219 51.8745 34.0035 51.8922 34.7496 52.0869C33.4529 52.5649 32.1739 52.919 30.8239 53.0606C29.8824 53.1491 28.9409 53.2022 27.9995 53.1314C28.0527 53.0429 28.1416 52.9367 28.2304 52.8305ZM30.0245 55.5567C30.4864 55.4859 30.9482 55.5213 31.4101 55.6275C31.6765 55.6806 31.3923 55.8576 31.5522 55.9284C32.0673 55.8753 32.5647 55.5213 33.293 55.7514C32.4581 55.9992 31.8364 56.371 31.2502 56.8136C32.4226 56.7074 33.4351 56.0346 34.572 55.8399C33.2752 56.5657 31.8541 56.9729 30.6462 57.858C30.3975 58.0351 30.2021 57.9288 29.989 57.7872C30.0423 57.681 30.0956 57.6102 30.1311 57.5394C29.7936 57.7518 29.4028 57.7695 29.0297 57.681C28.5679 57.5748 28.106 57.5748 27.6442 57.5925C27.3067 57.6102 26.9514 57.6633 26.5784 57.6987C27.3777 56.7251 28.9587 55.7337 30.0245 55.5567ZM23.523 66.3908C23.3099 66.4793 23.1322 66.6917 22.848 66.6386C23.0079 66.196 23.1678 65.8066 23.2566 65.3994C23.6651 63.399 23.6119 61.3809 23.3099 59.3628C23.2921 59.2034 23.2743 59.0618 23.2388 58.9025C23.4342 58.6547 23.6296 58.4068 23.825 58.1413V58.159C24.3046 58.2475 24.6599 57.8226 25.1395 57.8049C24.8731 58.2121 24.5178 58.4599 24.0915 58.6192C23.7717 58.7432 23.4875 58.9025 23.3987 59.2388C23.5586 59.4159 23.8428 59.3097 23.9671 59.5044C23.7184 60.124 23.5763 60.7436 24.127 61.2924C24.1803 61.3632 24.2336 61.4517 24.1803 61.5225C23.8783 61.9297 24.2158 62.2483 24.2869 62.6201C23.8072 63.2751 23.8072 63.3636 24.2691 63.7176C23.9494 64.4966 23.9494 64.4966 24.1448 64.8506C24.3402 64.886 24.4467 64.6559 24.6777 64.6736C24.6244 64.9214 24.4467 65.1516 24.6421 65.4171C25.2106 65.2224 25.5658 64.7798 26.1165 64.3549C25.9211 64.8506 25.6369 65.1339 25.4593 65.4702C25.4237 65.541 25.3704 65.6118 25.2816 65.6118C24.5533 65.6472 24.1092 66.1783 23.523 66.3908ZM25.6902 67.1166C25.9389 67.2228 26.0632 66.8864 26.3297 67.0458C25.7257 67.7716 25.406 68.6744 24.8375 69.4179C24.8908 68.5682 24.9796 67.7362 25.104 66.9041C25.1218 66.7448 25.1395 66.5678 25.2639 66.4262C25.9566 65.6118 26.7382 64.886 27.5554 64.1956C26.8626 65.1339 25.9744 65.9305 25.6902 67.1166ZM29.6515 61.5756C28.2304 62.1775 26.7915 61.9651 25.4415 61.2039C25.3172 61.133 25.104 61.1153 25.104 60.8498C25.406 60.8498 25.6902 60.8675 25.9922 60.8498C27.0225 60.7967 27.9995 60.6197 28.8521 59.9647C29.2429 59.6637 29.6159 59.3805 29.9712 59.0264C30.7706 58.2652 31.5877 57.5217 32.6535 57.0791C34.0568 56.4772 35.4957 56.0169 37.0233 55.8222C37.4141 55.7691 37.8049 55.8222 38.3023 55.8222C37.7339 56.2825 37.1832 56.5834 36.6503 56.8844C36.0996 57.1853 35.5134 57.3801 34.945 57.681C35.9575 57.5394 36.8102 57.026 37.7161 56.6011C37.3431 57.0791 36.899 57.4686 36.3661 57.7341C35.3003 58.2829 34.2167 58.7963 33.0265 59.0972C32.7601 59.168 32.4759 59.2211 32.2449 59.5221C33.0265 59.5044 33.666 59.1326 34.3766 59.1326C33.1686 59.646 31.8186 59.7876 30.7173 60.5666C31.8364 60.1771 33.0088 60.0532 34.1279 59.7168C35.2648 59.3805 36.295 58.8317 37.3786 58.336C35.9575 59.2034 34.6075 60.2302 32.9555 60.6551C34.5187 60.5134 35.8865 59.8584 37.2187 59.0795C36.9878 59.3982 36.7036 59.6283 36.4371 59.8938C35.6555 60.6551 34.6786 60.9737 33.6305 60.956C32.2627 60.956 30.9482 61.0268 29.6515 61.5756ZM38.7642 55.2734C38.6931 55.238 38.6221 55.2026 38.4622 55.1141C39.2438 54.6361 39.8655 53.9811 40.9136 54.1582C40.7892 54.406 40.5583 54.583 40.7182 54.7955C40.9136 55.0433 41.1445 54.8309 41.3399 54.7601C41.4998 54.7069 41.6419 54.6007 41.784 54.5299C41.8906 54.4768 42.0149 54.4237 42.1392 54.583C41.4642 55.0256 40.5761 55.1849 40.1497 55.9992C40.9846 55.7691 41.6241 55.0787 42.5123 54.9725C41.5353 55.5567 40.807 56.371 40.1497 57.2738C41.5175 56.4772 42.7077 55.3974 44.3597 55.2203C43.2228 55.6806 42.2636 56.371 41.5886 57.4155C42.6189 56.8844 43.5248 56.1055 44.6794 55.8399C43.6847 56.5657 42.8498 57.4155 42.1215 58.3891C43.0274 57.7695 43.8623 57.0791 44.9281 56.7428C44.1998 57.3624 43.6136 58.0882 43.0097 58.814C43.9867 58.2121 44.9459 57.6102 45.9584 57.0614C46.2782 56.8844 46.4025 56.9552 46.4913 57.2738C45.5499 57.6456 44.7683 58.1944 44.3064 59.0972C45.2479 58.814 45.9407 57.9642 47.042 58.0528C45.5143 59.0795 44.413 60.4603 43.6669 62.1067C43.6136 61.6995 43.6136 61.3278 43.6136 60.9383C43.6136 60.5488 43.809 60.1594 43.6492 59.6106C42.9031 59.8053 42.3524 60.2833 41.7662 60.6551C41.1623 61.0445 40.6293 61.5225 40.0432 61.9828C40.5228 61.0091 40.7715 59.9647 41.0557 58.8494C40.1675 58.8494 39.4392 59.292 38.5865 59.5398C38.924 58.8317 39.3681 58.2829 39.7589 57.7164C40.0431 57.3092 39.9188 57.1322 39.4392 57.0614C39.0484 57.0083 38.6754 57.203 38.2135 57.1676C38.4267 56.7782 38.6931 56.5126 38.9596 56.2471C39.5635 55.6275 39.5458 55.5567 38.7642 55.2734ZM42.1037 65.4879C42.4057 64.2133 42.3879 62.9387 42.9031 61.788C42.5123 63.6822 42.459 65.6118 42.1392 67.5237C42.9919 65.4702 43.9156 63.4521 44.9459 61.3455C44.8926 63.3459 43.0452 69.2763 42.086 70.6748C41.9439 70.6217 41.9439 70.5332 41.9083 70.4624C41.6241 69.7012 41.5886 68.9045 41.482 68.1079C41.2688 66.5501 41.2511 64.9922 41.5708 63.4521C41.7307 62.6732 42.0149 61.9474 42.5833 61.2216C42.4057 62.0182 42.2281 62.6909 42.086 63.3636C41.8728 64.5143 41.8906 64.9745 42.1037 65.4879ZM30.4331 65.8774C30.5041 65.0276 30.8061 64.2487 31.2679 63.5406C31.8186 62.6909 32.4759 61.8943 33.4706 61.6287C34.3233 61.3809 35.2825 61.4871 36.2417 61.0445C35.8865 61.611 35.4246 61.8766 35.1582 62.3722C36.0641 62.2483 36.6325 61.611 37.3253 61.2216C35.6555 63.7176 33.0621 64.7975 30.4331 65.8774ZM28.7988 73.1001C30.1133 72.392 30.5574 71.8963 30.9482 70.3916C31.0548 69.9313 31.037 69.471 31.0015 69.0108C30.966 68.3204 31.1614 67.6831 31.3568 67.0458C31.5166 66.497 31.8719 66.0544 32.3871 65.7535C31.8541 66.5855 31.6232 67.506 31.5522 68.462C32.0495 67.4175 32.5825 66.4085 33.3463 65.541C32.7956 66.7094 32.1206 67.807 32.0673 69.1347C32.5825 68.5151 32.6535 67.7008 33.1154 67.0635C33.0621 67.3998 32.9733 67.7185 32.9022 68.0371C32.8134 68.4797 32.9377 69.0108 32.8311 69.3825C32.5647 70.3739 32.2094 71.3829 31.2679 72.1618C33.364 71.4891 34.5897 69.9844 35.7444 68.3912C34.6786 71.56 30.9482 73.702 28.7988 73.1001ZM36.3839 72.3566C36.1174 72.87 35.7799 73.3656 35.7799 73.9852C35.7799 74.0029 35.7088 74.0029 35.6555 74.0206C35.6378 73.9675 35.6023 73.9144 35.6023 73.8436C35.4601 71.5777 36.0108 69.4533 36.8812 67.3998C36.9523 67.2228 37.0766 67.0812 37.3786 67.0989C36.8812 68.5328 36.3306 69.9313 36.1707 71.56C36.4016 71.2944 36.4371 71.0643 36.5082 70.8518C36.9523 69.6127 37.272 68.3204 37.7516 67.0812C37.8582 66.7979 37.947 66.5324 38.3734 66.4616C38.0536 67.0989 37.8938 67.7008 37.7339 68.3026C37.3964 69.6835 37.0589 71.082 36.3839 72.3566ZM39.3859 71.7724C39.3504 72.1795 39.2971 72.569 39.2793 72.9762C39.2083 74.6756 38.4622 76.0742 37.4319 77.3665C37.6806 75.9856 37.8227 74.6048 37.5918 73.2063C37.4852 72.5336 37.4852 71.8609 37.4674 71.1882C37.4674 70.905 37.5385 70.5863 37.7694 70.5686C38.0181 70.5509 37.9826 70.427 38.0003 70.3031C38.1069 69.6835 38.1957 69.0639 38.2846 68.4443C38.4444 70.0552 38.178 71.6839 38.5332 73.2771C38.9063 71.4537 38.8352 69.5949 39.226 67.7716C39.0839 69.117 39.5102 70.4447 39.3859 71.7724ZM38.3911 65.8066C37.6273 66.2845 36.8279 66.7271 36.0641 67.2405C35.4957 67.6122 34.9272 67.984 34.1634 68.2318C34.7141 66.8864 35.0871 65.5587 35.6911 64.3372C35.8154 64.0717 35.8687 63.7176 36.0641 63.5583C36.7214 63.0272 37.2365 62.3368 38.0359 61.7349C37.8049 62.2129 37.574 62.5493 37.6628 62.9918C38.0892 62.8502 38.2846 62.4962 38.6221 62.3014C37.6806 63.9832 36.3306 65.3463 35.1049 66.9395C35.4779 66.8864 35.6023 66.7271 35.7621 66.5855C36.4727 66.019 36.9345 65.1516 37.8582 64.8152C38.0003 64.7621 38.0892 64.5674 38.1957 64.4435C38.6754 63.8416 39.1372 63.2397 39.6168 62.6201C39.9543 62.8856 39.6701 63.0272 39.528 63.1866C39.0306 63.6999 38.551 64.231 38.2135 64.9037C39.5458 64.1956 40.4695 63.0272 41.5531 61.8766C41.1445 63.4521 40.7715 64.0186 39.6524 64.9214C39.2438 65.2578 38.8175 65.541 38.3911 65.8066ZM40.8425 74.7464C40.7537 73.879 40.3451 73.2771 39.8478 72.7283C39.6879 72.5513 39.6346 72.392 39.6524 72.1795C39.7767 70.9935 40.0254 69.8428 40.1142 68.639C40.1675 69.4179 40.132 70.1968 40.1853 70.9758C40.2385 71.737 40.2208 72.5336 40.6471 73.2417C40.5583 71.6485 40.5761 70.0729 40.5761 68.3912C40.8425 69.8251 41.0024 71.1705 41.18 72.4982C41.8728 72.3743 42.1393 71.8432 42.5478 71.4537C42.2991 72.6929 41.784 73.7728 40.8425 74.7464ZM42.6366 76.499C42.5833 75.8086 42.5478 75.1182 42.459 74.4455C42.459 74.3924 42.4412 74.3039 42.4768 74.2685C42.9564 73.5604 43.1162 72.7283 43.436 71.8078C43.507 73.1532 42.6722 74.2331 42.9564 75.4723C43.4715 74.8881 43.7202 74.18 44.0755 73.525C43.809 74.6048 43.3649 75.6139 42.6366 76.499ZM48.9249 71.5777C48.6585 72.6398 48.392 73.702 48.1256 74.7642C48.1078 74.835 48.0723 74.9235 47.9302 74.8881C47.7348 73.2063 47.113 71.5422 47.3973 69.7897C47.113 70.7987 46.8999 71.8255 46.6512 72.8345C46.3847 73.8436 46.0117 74.8173 45.3012 75.6847C45.2834 75.5608 45.2479 75.49 45.2656 75.4369C45.5143 74.1446 45.3189 72.87 44.9992 71.6131C44.3064 68.9045 44.1998 66.2137 45.1413 63.5229C45.39 62.7971 45.763 62.1421 46.0828 61.4517C45.9229 62.9741 45.5676 64.4789 45.8163 66.1429C46.0828 64.8683 46.065 63.6822 46.367 62.5493C46.438 64.6382 46.3492 66.7448 46.6157 68.816C46.74 66.9926 46.5624 65.1516 46.9887 63.3459C47.042 64.532 47.1486 65.7003 47.3795 66.851C47.646 66.1075 47.4683 65.3286 47.646 64.5851C47.8236 66.3199 48.0012 68.0371 48.1789 69.772C48.4453 67.7716 48.321 65.7889 48.0723 63.8239C48.5341 65.3109 48.7473 66.8333 48.9249 68.3558C49.0493 69.4356 49.1914 70.5155 48.9249 71.5777ZM51.8026 72.0733C51.6605 72.4097 51.5717 72.746 51.4651 73.1001C51.252 73.8259 51.0921 74.5694 50.8079 75.2952C50.5414 74.5871 50.3638 73.8436 50.1506 73.1001C50.044 72.7637 49.9552 72.4097 49.8131 72.0733C49.4578 71.2236 49.298 70.3385 49.3513 69.4002C49.6355 69.9667 49.6177 70.5863 49.8842 71.2236C50.1151 70.5863 49.9019 69.9844 49.9552 69.3825C50.275 69.9667 50.275 70.6571 50.7368 71.2944C50.7546 71.3121 50.7723 71.3298 50.7901 71.3475C50.8079 71.3298 50.8256 71.2944 50.8612 71.2767C51.323 70.6571 51.3052 69.9667 51.6428 69.3825C51.6783 69.9844 51.4651 70.5863 51.7138 71.2236C51.998 70.5863 51.9625 69.9667 52.2467 69.4002C52.3355 70.3385 52.1579 71.2236 51.8026 72.0733ZM50.8256 68.3912C49.7065 67.0103 49.2091 65.3286 48.8006 63.6114C48.5341 62.4784 48.4808 61.3101 48.2854 60.1771C47.9479 58.2121 47.0065 56.5834 45.5143 55.2734C44.5373 54.4237 43.3294 54.105 42.086 53.9103C41.1978 53.7687 40.3629 53.4855 39.5458 53.1491C39.0129 52.9367 38.6221 52.5649 38.3734 52.0515C38.249 51.786 38.249 51.5204 38.3911 51.2549C38.6221 50.7769 38.8708 50.6884 39.3504 50.9009C39.4392 50.9363 39.528 51.0071 39.6168 51.0602C40.3096 51.5559 41.0379 51.6267 41.8373 51.308C42.7432 50.9363 43.5959 51.0248 44.4485 51.5027C45.1413 51.8922 45.2834 51.8214 45.5321 51.0602C45.9229 49.9272 45.9051 48.7234 45.8341 47.555C45.7808 46.8115 45.8163 46.068 45.8874 45.3422C45.9407 44.7934 45.9229 44.2446 46.0295 43.7135C46.5446 41.1643 48.0545 39.518 50.5947 38.8453C50.6658 38.8276 50.7191 38.8099 50.7901 38.7922C50.8612 38.8099 50.9145 38.8276 50.9855 38.8453C53.5257 39.518 55.0356 41.1643 55.5507 43.7135C55.6573 44.2446 55.6396 44.8111 55.6929 45.3422C55.7817 46.068 55.7994 46.8115 55.7461 47.555C55.6573 48.7234 55.6573 49.9272 56.0481 51.0602C56.2968 51.8037 56.4567 51.8745 57.1317 51.5027C57.9844 51.0248 58.8548 50.9186 59.7429 51.308C60.5423 51.6444 61.2706 51.5559 61.9634 51.0602C62.0522 51.0071 62.141 50.9363 62.2298 50.9009C62.7095 50.6884 62.9581 50.7769 63.1891 51.2549C63.3134 51.5204 63.3312 51.7683 63.2068 52.0515C62.9581 52.5649 62.5674 52.9367 62.0344 53.1491C61.2173 53.4855 60.3647 53.7687 59.4943 53.9103C58.2508 54.105 57.0429 54.4237 56.0659 55.2734C54.5737 56.5834 53.6323 58.2121 53.2948 60.1771C53.0994 61.3101 53.0461 62.4784 52.7796 63.6114C52.4421 65.3286 51.9447 67.0103 50.8256 68.3912ZM61.8923 57.7164C62.2831 58.2829 62.7272 58.814 63.0647 59.5398C62.2121 59.292 61.4838 58.8494 60.5956 58.8494C60.8798 59.9647 61.1107 61.0091 61.6081 61.9828C61.0219 61.5402 60.489 61.0445 59.8851 60.6551C59.2989 60.2833 58.7659 59.8053 58.0021 59.6106C57.8422 60.1594 58.0376 60.5488 58.0376 60.9383C58.0376 61.3101 58.0376 61.6995 57.9844 62.1067C57.2383 60.4426 56.1369 59.0795 54.6093 58.0528C55.7106 57.9642 56.4034 58.7963 57.3449 59.0972C56.883 58.1767 56.1014 57.6456 55.1599 57.2738C55.2488 56.9552 55.3731 56.9021 55.6929 57.0614C56.7054 57.5925 57.6646 58.1944 58.6416 58.814C58.0376 58.1059 57.4514 57.3624 56.7231 56.7428C57.7712 57.0791 58.6238 57.7695 59.5298 58.3891C58.7837 57.4332 57.9488 56.5657 56.9718 55.8399C58.1265 56.1055 59.0324 56.8667 60.0627 57.4155C59.3877 56.371 58.4284 55.6983 57.2916 55.2203C58.9436 55.4151 60.1515 56.4949 61.5015 57.2738C60.8265 56.371 60.116 55.5567 59.139 54.9725C60.0272 55.0787 60.6489 55.7691 61.5015 55.9992C61.0752 55.2026 60.2048 55.0256 59.512 54.583C59.6364 54.4237 59.7429 54.4768 59.8673 54.5299C60.0272 54.6007 60.1693 54.7069 60.3114 54.7601C60.5068 54.8309 60.7377 55.0433 60.9331 54.7955C61.1107 54.583 60.8798 54.406 60.7377 54.1582C61.768 53.9811 62.3897 54.6538 63.1891 55.1141C63.0292 55.2026 62.9759 55.238 62.8871 55.2734C62.0877 55.5567 62.0877 55.6275 62.6917 56.2471C62.9582 56.5126 63.2246 56.7782 63.4378 57.1676C62.9759 57.203 62.6029 57.0083 62.2121 57.0614C61.7325 57.1322 61.6081 57.3269 61.8923 57.7164ZM58.7304 61.7703C59.2633 62.921 59.2278 64.1956 59.5298 65.4702C59.7607 64.9568 59.7607 64.5143 59.5475 63.3636C59.4232 62.6909 59.2456 62.0182 59.0502 61.2216C59.6186 61.9651 59.9028 62.6732 60.0627 63.4521C60.3647 64.9922 60.3647 66.5501 60.1515 68.1079C60.0449 68.9045 60.0094 69.7012 59.7252 70.4624C59.6897 70.5332 59.7074 70.6394 59.5475 70.6748C58.5883 69.2763 56.7587 63.3282 56.6876 61.3455C57.7001 63.4521 58.6238 65.4702 59.4943 67.5237C59.1745 65.6118 59.1212 63.6645 58.7304 61.7703ZM56.6698 71.6131C56.3501 72.87 56.1547 74.1268 56.4034 75.4369C56.4212 75.49 56.3856 75.5608 56.3679 75.6847C55.6396 74.8173 55.2843 73.8436 55.0178 72.8345C54.7691 71.8255 54.556 70.8164 54.2718 69.7897C54.556 71.56 53.9343 73.2063 53.7389 74.8881C53.5967 74.9235 53.5612 74.835 53.5435 74.7642C53.277 73.702 53.0106 72.6398 52.7441 71.5777C52.4776 70.5155 52.6198 69.4356 52.7441 68.3735C52.9217 66.851 53.1527 65.3286 53.5967 63.8416C53.3481 65.8066 53.2237 67.7893 53.4902 69.7897C53.6678 68.0548 53.8454 66.3376 54.0231 64.6028C54.2007 65.3463 54.0231 66.1252 54.2895 66.8687C54.5027 65.7003 54.627 64.532 54.6803 63.3636C55.1067 65.1693 54.9468 67.0103 55.0534 68.8337C55.3376 66.7448 55.231 64.6559 55.3021 62.567C55.5863 63.6999 55.5685 64.886 55.8527 66.1606C56.1014 64.4789 55.7284 62.9918 55.5863 61.4694C55.906 62.1598 56.279 62.8325 56.5277 63.5406C57.4692 66.2137 57.3449 68.9045 56.6698 71.6131ZM59.1923 74.4455C59.1035 75.1182 59.0679 75.8086 59.0146 76.499C58.2686 75.6139 57.8245 74.6048 57.558 73.525C57.9311 74.18 58.162 74.8881 58.6771 75.4723C58.9613 74.2331 58.1265 73.1532 58.1975 71.8078C58.5173 72.7283 58.6771 73.5604 59.1567 74.2685C59.21 74.3039 59.21 74.3747 59.1923 74.4455ZM61.7858 72.7283C61.2884 73.2771 60.8798 73.879 60.791 74.7464C59.8495 73.7728 59.3344 72.6752 59.0857 71.4537C59.4943 71.8432 59.7607 72.3743 60.4535 72.4982C60.6311 71.1528 60.791 69.8251 61.0574 68.3912C61.0574 70.0729 61.0752 71.6485 60.9864 73.2417C61.4127 72.5336 61.3772 71.737 61.4482 70.9758C61.5015 70.1968 61.466 69.4179 61.5193 68.639C61.6081 69.8251 61.8568 70.9935 61.9812 72.1795C62.0167 72.392 61.9634 72.5513 61.7858 72.7283ZM60.116 61.8943C61.1996 63.0449 62.1233 64.2133 63.4555 64.9214C63.1358 64.2664 62.6562 63.7353 62.141 63.2043C61.9989 63.0626 61.7147 62.921 62.0522 62.6378C62.5318 63.2397 62.9937 63.8593 63.4733 64.4612C63.5799 64.5851 63.6687 64.7798 63.8108 64.8329C64.7167 65.187 65.1964 66.0367 65.9069 66.6032C66.0668 66.7271 66.1911 66.9041 66.5642 66.9572C65.3385 65.3463 63.9884 63.9832 63.047 62.3191C63.3845 62.5139 63.5799 62.8679 64.0062 63.0095C64.095 62.567 63.8463 62.2306 63.6332 61.7526C64.4325 62.3545 64.9477 63.0449 65.6049 63.576C65.8003 63.7353 65.8536 64.0894 65.978 64.3549C66.5819 65.5764 66.9372 66.8864 67.5056 68.2495C66.7418 68.0017 66.1556 67.6299 65.6049 67.2582C64.8589 66.7448 64.0595 66.3022 63.2779 65.8243C62.8516 65.5587 62.4252 65.2755 62.0344 64.9568C60.8976 64.0363 60.5245 63.4521 60.116 61.8943ZM62.3719 72.9762C62.3542 72.569 62.3009 72.1795 62.2654 71.7724C62.141 70.427 62.5851 69.117 62.4075 67.7893C62.7983 69.6126 62.7095 71.4714 63.1003 73.2948C63.4555 71.7016 63.1891 70.0729 63.3489 68.462C63.4378 69.0816 63.5443 69.7012 63.6332 70.3208C63.6509 70.4624 63.6154 70.5686 63.8641 70.5863C64.095 70.604 64.1838 70.9227 64.1661 71.2059C64.1483 71.8786 64.1483 72.5513 64.0417 73.224C63.8108 74.6225 63.9707 75.9856 64.2016 77.3842C63.1891 76.0742 62.443 74.6756 62.3719 72.9762ZM66.049 73.8436C66.049 73.8967 66.0135 73.9498 65.9957 74.0206C65.9424 74.0029 65.8714 74.0029 65.8714 73.9852C65.8714 73.3656 65.5339 72.8877 65.2674 72.3566C64.5924 71.082 64.2549 69.6835 63.9174 68.3026C63.7575 67.6831 63.5976 67.0812 63.2779 66.4616C63.7042 66.5324 63.793 66.7979 63.8996 67.0812C64.3792 68.3204 64.699 69.6127 65.1431 70.8518C65.2141 71.0643 65.2496 71.2944 65.4806 71.56C65.3207 69.9313 64.77 68.5328 64.2727 67.0989C64.5746 67.0812 64.699 67.2405 64.77 67.3998C65.6404 69.4533 66.1734 71.5954 66.049 73.8436ZM72.8525 73.1001C70.7031 73.702 66.9727 71.56 65.9069 68.3912C67.0615 69.9844 68.2872 71.4891 70.3833 72.1618C69.4419 71.3652 69.0866 70.3562 68.8201 69.3825C68.7135 69.0108 68.8379 68.4797 68.7491 68.0371C68.678 67.7185 68.5892 67.3998 68.5359 67.0635C68.9978 67.7008 69.0688 68.5151 69.584 69.1347C69.5484 67.807 68.8557 66.7094 68.305 65.541C69.0866 66.4085 69.6017 67.4175 70.0991 68.462C70.028 67.506 69.7971 66.5855 69.2642 65.7535C69.7794 66.0544 70.1169 66.497 70.2945 67.0458C70.4899 67.6831 70.7031 68.3204 70.6498 69.0108C70.6142 69.471 70.5965 69.949 70.7031 70.3916C71.0761 71.8963 71.538 72.392 72.8525 73.1001ZM64.3437 61.2216C65.0365 61.611 65.5872 62.266 66.5109 62.3722C66.2444 61.8766 65.7826 61.5933 65.4273 61.0445C66.3865 61.4871 67.328 61.3809 68.1984 61.6287C69.1932 61.912 69.8504 62.7086 70.4011 63.5406C70.8629 64.2487 71.1472 65.0276 71.236 65.8774C68.5892 64.7975 65.9957 63.7176 64.3437 61.2216ZM71.9998 61.5756C70.7031 61.0268 69.3886 60.956 68.0385 60.9914C66.9905 61.0091 66.0135 60.6905 65.2319 59.9293C64.9654 59.6814 64.6812 59.4336 64.4503 59.1149C65.7826 59.8938 67.1504 60.5488 68.7135 60.6905C67.0615 60.2656 65.7115 59.2388 64.2904 58.3714C65.374 58.8494 66.4043 59.4159 67.5411 59.7522C68.678 60.0709 69.8504 60.2125 70.9518 60.602C69.8504 59.823 68.5004 59.6814 67.2925 59.168C68.003 59.1503 68.6425 59.5398 69.4241 59.5575C69.1932 59.2388 68.9089 59.1857 68.6425 59.1326C67.4701 58.8317 66.3865 58.3183 65.3029 57.7695C64.77 57.504 64.3259 57.1145 63.9529 56.6365C64.8589 57.0614 65.7293 57.5571 66.724 57.7164C66.1734 57.4332 65.5694 57.2207 65.0187 56.9198C64.4681 56.6188 63.9351 56.3179 63.3667 55.8576C63.8641 55.8576 64.2549 55.8222 64.6457 55.8576C66.1556 56.0524 67.5944 56.5303 69.0155 57.1145C70.0636 57.5571 70.8807 58.3006 71.6978 59.0618C72.0531 59.3982 72.4261 59.6991 72.8169 60.0001C73.6518 60.6551 74.6466 60.8321 75.6769 60.8852C75.9788 60.9029 76.2631 60.8852 76.565 60.8852C76.5828 61.1507 76.3519 61.1507 76.2275 61.2393C74.8597 61.9651 73.4209 62.1775 71.9998 61.5756ZM75.3216 67.0458C75.588 66.8864 75.7124 67.2228 75.9611 67.1166C75.6769 65.9305 74.7709 65.1339 74.0959 64.1779C74.9308 64.8683 75.7124 65.5941 76.3874 66.4085C76.5118 66.5501 76.5118 66.7271 76.5473 66.8864C76.6716 67.7185 76.7604 68.5505 76.8137 69.4002C76.2453 68.6567 75.9256 67.7716 75.3216 67.0458Z" fill="black"/>
</g>
<defs>
<clipPath id="clip0_101_1267">
<rect width="66.6667" height="60.8974" fill="white" transform="translate(16.6665 19.2307)"/>
</clipPath>
</defs>
</svg>
